<?xml version="1.0" encoding="UTF-8"?> <svg xmlns="http://www.w3.org/2000/svg" xmlns:xlink="http://www.w3.org/1999/xlink" version="1.1" id="Слой_1" x="0px" y="0px" viewBox="0 0 324 324" style="enable-background:new 0 0 324 324;" xml:space="preserve"> <style type="text/css"> .st0{fill:#19AA1E;} .st1{fill-rule:evenodd;clip-rule:evenodd;fill:#FFB919;} .st2{fill-rule:evenodd;clip-rule:evenodd;fill:#82D714;} .st3{fill-rule:evenodd;clip-rule:evenodd;fill:#FFFFFF;} .st4{fill-rule:evenodd;clip-rule:evenodd;fill:#0073FA;} </style> <g> <path class="st0" d="M0,0h323.9v324H0V0z"></path> <path class="st1" d="M0,0h323.9v106L0,55.1V0z"></path> <path class="st2" d="M0,289.2l323.9-50.9v85.6H0V289.2z"></path> <path class="st3" d="M0,48.7l113.1,17.8c14.1-9,30.8-13.9,48.9-13.9c25,0,47.5,9.4,63.9,26c2.1,2.1,4,4.3,5.8,6.5l92.2,14.5v12.9 l-82.9-13c6.2,11.9,9.5,25.2,9.5,38.6c0,17.5-3.9,34.9-11.9,52.3l-0.2,0.5l-3.4,7.3h-8.1c-16.6,0-27.7,5-34.9,13.9 c-5.7,7-8.9,16.4-10,26.6v0.3l-0.2,1.6l-0.1,0.7l-0.1,1.4c-0.4,4.6-0.7,8.4-0.8,11.6L324,231.8v12.9l-324,51v-12.9l143.4-22.5 l-0.1-2.9v-0.8v-0.4v-0.6c-0.2-4.5-0.5-9-1-13.5l-0.1-1l-0.2-1.8c-1-10.3-4.3-19.8-9.9-26.9c-7.1-8.9-18.1-14-34.6-14.1H89 l-3.4-7.3c-8.2-17.7-12.2-35.2-12.2-52.9c0-22.2,8.9-43.6,24.7-59.5c0.5-0.5,0.9-0.9,1.4-1.4L0,61.5V48.7z"></path> <path class="st4" d="M162,65.3c45.2,0,75.9,35,75.9,72.8c0,15.2-3.3,30.9-11,47.5c-44.5,0-55.5,32.1-57.6,52.2l-0.1,1.3 c-0.7,7.2-1.1,13-1.2,17.3l-12.1,1.9v-0.4c0-4.6-0.5-11-1.3-19.2v-0.4c-1.9-20.1-12.7-52.8-57.6-52.8C89.3,169,86,153.2,86,138 C86,100.3,116.7,65.3,162,65.3"></path> </g> </svg> 