<?xml version="1.0" encoding="UTF-8"?> <svg xmlns="http://www.w3.org/2000/svg" xmlns:xlink="http://www.w3.org/1999/xlink" version="1.1" id="Слой_1" x="0px" y="0px" viewBox="0 0 274 274" style="enable-background:new 0 0 274 274;" xml:space="preserve"> <style type="text/css"> .st0{fill:#04E061;} .st1{fill:#FF4053;} .st2{fill:#965EEB;} .st3{fill:#00AAFF;} </style> <g> <path class="st0" d="M87.4,249.7c39.8,0,72.1-32.2,72.1-72.1c0-39.8-32.2-72.1-72.1-72.1c-39.8,0.1-72.1,32.3-72.1,72.1 S47.5,249.7,87.4,249.7z"></path> <path class="st1" d="M212.3,240.5c24,0,43.5-19.5,43.5-43.5s-19.5-43.5-43.5-43.5S168.7,173,168.7,197S188.2,240.5,212.3,240.5z"></path> <path class="st2" d="M101.2,96.2c14.8,0,26.9-12,26.9-26.9s-12-26.9-26.9-26.9c-14.8,0-26.9,12-26.9,26.9S86.2,96.2,101.2,96.2z"></path> <path class="st3" d="M195.4,144.1c32.3,0,58.5-26.2,58.5-58.5S227.7,27,195.4,27s-58.5,26.2-58.5,58.5 C136.8,117.9,163,144.1,195.4,144.1z"></path> </g> </svg> 