<?xml version="1.0" encoding="utf-8"?>
<!-- Generator: Adobe Illustrator 27.2.0, SVG Export Plug-In . SVG Version: 6.00 Build 0)  -->
<svg version="1.1" id="_Слой_1" xmlns="http://www.w3.org/2000/svg" xmlns:xlink="http://www.w3.org/1999/xlink" x="0px"
	 y="0px" viewBox="0 0 283.5 283.5" style="enable-background:new 0 0 283.5 283.5;" xml:space="preserve">
<style type="text/css">
	.st0{fill:#31414E;}
</style>
<g>
	<path class="st0" d="M141.8,283.5c-28.1,0-56.1,0-84.2,0c-5.6,0-11-0.7-16.4-2.2c-19.9-5.7-35.3-22-39.8-42.3
		c-0.8-3.7-1.3-7.4-1.3-11.2c0-0.8,0-1.7,0-2.5c0-55.7,0-111.5,0-167.2c0-2.5,0-5.1,0.3-7.6c0.9-7.8,3.2-15.2,7.2-21.9
		C16,14.3,28.3,5.2,44.5,1.3c3.8-0.9,7.8-1.2,11.7-1.3c0.6,0,1.2,0,1.8,0c55.8,0,111.6,0,167.4,0c4.2,0,8.4,0.3,12.5,1.2
		c10.9,2.3,20.4,7.3,28.3,15.1c8.3,8.1,13.6,17.8,16,29.1c0.7,3.4,1.1,6.8,1.1,10.2c0,0.7,0,1.4,0,2.2c0,56,0,112,0,168.1
		c0,4.3-0.3,8.6-1.3,12.9c-3.6,15.9-12.4,28.1-26.2,36.6c-6.3,3.9-13.2,6.4-20.6,7.5c-3,0.5-6,0.7-9.1,0.7c-5.3,0-10.5,0-15.8,0
		C187.6,283.5,164.7,283.5,141.8,283.5z M255.2,142.1c0-0.9,0-1.5,0-2.2c0-20.1,0-40.2,0-60.3c0-7.5,0-14.9,0-22.4
		c0-2.6-0.3-5.2-0.9-7.7c-2.7-10.9-11.7-19.1-22.8-20.7c-1.9-0.3-3.9-0.3-5.8-0.3c-55.9,0-111.8,0-167.8,0c-0.7,0-1.4,0-2.2,0
		c-1.8,0-3.6,0.3-5.4,0.7c-10.3,2.3-18.4,10-21,20.2c-0.7,2.8-1,5.7-1,8.6c0,42,0,84,0,126c0,0.4,0,0.9,0,1.3c0,0.2,0.1,0.4,0.2,0.8
		c0.5-0.5,1-0.8,1.3-1.2c5.1-4.9,10.3-9.8,15.4-14.6c6.2-5.9,12.4-11.8,18.7-17.7c8.7-8.3,21.3-11.6,32.9-8.8
		c5,1.2,9.5,3.3,13.6,6.4c8.1,6,16.2,12,24.3,18c0.4,0.3,0.8,0.6,1.2,0.9c2.7,1.7,5.9,1.4,8.3-0.7c0.5-0.4,1-0.9,1.4-1.4
		c14.6-14.6,29.1-29.1,43.7-43.7c5.4-5.4,11.8-8.5,19.3-9.4c7.3-0.9,14.1,0.5,20.4,4.2c2.7,1.5,5,3.5,7.1,5.6
		c5.7,5.8,11.5,11.5,17.3,17.3C254,141.2,254.3,141.8,255.2,142.1z M28.4,225.2c-0.2,1.8,0.1,3.5,0.4,5.1c1.3,7.2,4.8,13.2,10.2,18
		c3.9,3.4,8.4,5.7,13.6,6.5c1.9,0.3,3.7,0.3,5.6,0.3c55.6,0,111.3,0,166.9,0c0.7,0,1.3,0,2,0c1.5-0.1,3.1-0.2,4.6-0.4
		c8.2-1.4,14.7-5.7,19.1-12.8c3-4.7,4.3-9.9,4.3-15.5c0-14.1,0-28.2,0-42.3c0-1.1-0.2-1.9-1.1-2.6c-0.1-0.1-0.2-0.2-0.2-0.2
		c-12.5-12.5-25-25-37.5-37.5c-0.3-0.3-0.5-0.6-0.8-0.8c-1.8-1.6-4.3-1.5-6,0.1c-0.3,0.3-0.6,0.6-0.9,0.9
		c-14.2,14.2-28.3,28.3-42.5,42.5c-0.6,0.6-1.2,1.3-1.9,1.9c-9.2,8.5-20,11.4-32.2,9c-4.9-1-9.4-3.1-13.5-6.1
		c-8-6-16.1-11.9-24.2-17.9c-0.5-0.4-1.1-0.8-1.6-1.2c-2.9-1.8-6.3-1.6-8.9,0.6c-0.4,0.3-0.7,0.7-1.1,1
		c-17.8,16.8-35.5,33.7-53.3,50.5C29.1,224.6,28.7,224.9,28.4,225.2z"/>
	<path class="st0" d="M99.2,77.7c0.1,11.6-9.5,21.5-21.6,21.5c-12,0-21.5-9.9-21.5-21.6c0-11,8.9-21.5,21.6-21.5
		C90.4,56.2,99.3,66.7,99.2,77.7z"/>
</g>
</svg>
