<?xml version="1.0" encoding="UTF-8"?> <svg xmlns:inkscape="http://www.inkscape.org/namespaces/inkscape" xmlns:sodipodi="http://sodipodi.sourceforge.net/DTD/sodipodi-0.dtd" xmlns="http://www.w3.org/2000/svg" xmlns:xlink="http://www.w3.org/1999/xlink" version="1.1" id="Слой_1" x="0px" y="0px" viewBox="0 0 1000 1000" style="enable-background:new 0 0 1000 1000;" xml:space="preserve"> <style type="text/css"> .st0{fill:url(#SVGID_1_);} .st1{fill:url(#SVGID_00000105388089973942476510000005403998461552726935_);} .st2{fill:url(#SVGID_00000122708192932057087370000012362803059176533923_);} .st3{fill:url(#SVGID_00000128446077162447780100000008379762114175613855_);} .st4{fill:#FFFFFF;} </style> <g inkscape:groupmode="layer" inkscape:label="Layer 1"> <radialGradient id="SVGID_1_" cx="-2.683" cy="249.5523" r="57.3265" gradientTransform="matrix(-11.7467 3.3128 2.3868 8.4629 384.6957 -1637.0123)" gradientUnits="userSpaceOnUse"> <stop offset="0" style="stop-color:#FF005F"></stop> <stop offset="1" style="stop-color:#FC01D8"></stop> </radialGradient> <path inkscape:connector-curvature="0" class="st0" d="M500.2,0C291.4,0,218.5,0,218.5,0h-101H0l0,189.7c0,0,0.2,28.2,0,147.6 C0,377.1,0,429.5,0,499.8c0,208.6,0,281.5,0,281.5l0,96.6L0,1000l234.2,0c0,0,138.6,0,264.9,0c126.3,0,264.6,0,264.6,0H1000V877.6 l0-94.8c0,0,0-146,0-283.2c0-137.2,0-282.8,0-282.8v-94.2L1000,0H810.4c0,0-28,0.2-147.5,0L500.2,0z"></path> <radialGradient id="SVGID_00000001637260827471363080000017509437652710908300_" cx="-15.9631" cy="294.6615" r="52.3515" gradientTransform="matrix(0 -15.2473 -16.1771 0 5032.374 833.6262)" gradientUnits="userSpaceOnUse"> <stop offset="0" style="stop-color:#FFCC00"></stop> <stop offset="0.1242" style="stop-color:#FFCC00"></stop> <stop offset="0.5672" style="stop-color:#FE4A05"></stop> <stop offset="0.6942" style="stop-color:#FF0F3F"></stop> <stop offset="1" style="stop-color:#FE0657;stop-opacity:0"></stop> </radialGradient> <path inkscape:connector-curvature="0" style="fill:url(#SVGID_00000001637260827471363080000017509437652710908300_);" d=" M500.2,0H218.5h-101H0l0,189.7l0,147.6v162.5l0,281.5l0,96.6L0,1000l233.5,0l265.6,0l264.6,0H1000V877.6l0-94.8l0-283.2l-1-282.9 l1-88.3L1000,0H811.5L662.9,0L500.2,0z"></path> <radialGradient id="SVGID_00000165234523836320624830000010691800813954782344_" cx="17.3287" cy="262.8213" r="73.8867" gradientTransform="matrix(2.549 -4.3919 -5.7178 -3.3185 1987.0829 2000.8243)" gradientUnits="userSpaceOnUse"> <stop offset="0" style="stop-color:#FFCC00"></stop> <stop offset="1" style="stop-color:#FFCC00;stop-opacity:0"></stop> </radialGradient> <path inkscape:connector-curvature="0" style="fill:url(#SVGID_00000165234523836320624830000010691800813954782344_);" d=" M500.2,0H218.5H0l0,73.7l0,116l0,147.6v162.5l1.2,281.5L0,877.9L0,1000l233.5,0l265.6,0l264.6-0.8l75.2,0.8l161,0l0-217.1l0-283.2 l0-282.9v-94L1000,0H810.4L662.9,0L500.2,0z"></path> <radialGradient id="SVGID_00000057149852548808381490000015411230266162086046_" cx="-57.6141" cy="797.2294" r="73.474" gradientTransform="matrix(-9.0667 2.553 0.8696 3.0891 -1114.8265 -2318.4624)" gradientUnits="userSpaceOnUse"> <stop offset="0" style="stop-color:#780CFF"></stop> <stop offset="1" style="stop-color:#820BFF;stop-opacity:0"></stop> </radialGradient> <path inkscape:connector-curvature="0" style="fill:url(#SVGID_00000057149852548808381490000015411230266162086046_);" d=" M500.2,0C291.4,0,218.4,0,218.4,0l-98.3,0L0,0l0,189.7c0,0,0.2,28.2,0,147.6C0,377.1,0,429.5,0,499.8c0,208.6,0,281.5,0,281.5 l0,96.6L0,1000l233.5,0c0,0,139.4,0,265.6,0c126.3,0,287.1,0,287.1,0l52.7,0l161,0l0-217c0,0,0-146.1,0-283.3 c0-137.2,0-282.8,0-282.8v-94.2L1000,0H811.5c0,0-29,0.2-148.6,0H500.2z"></path> <path inkscape:connector-curvature="0" class="st4" d="M500.2,175.6c-88.1,0-99.2,0.4-133.8,2c-34.6,1.6-58.1,7-78.8,15.1 c-21.3,8.3-39.5,19.4-57.5,37.4c-18.1,18-29.1,36.1-37.5,57.4c-8,20.6-13.5,44.2-15.1,78.7c-1.5,34.6-2,45.7-2,133.7 c0,88.1,0.4,99.1,2,133.7c1.6,34.5,7.1,58.1,15.1,78.7c8.3,21.3,19.4,39.4,37.4,57.5c18,18,36.1,29.2,57.5,37.4 c20.7,8,44.2,13.5,78.8,15.1c34.6,1.6,45.7,2,133.8,2c88.2,0,99.2-0.4,133.8-2c34.6-1.6,58.2-7,78.8-15.1 c21.3-8.3,39.4-19.4,57.5-37.4c18.1-18,29.1-36.1,37.5-57.4c8-20.6,13.5-44.2,15.1-78.7c1.6-34.6,2-45.6,2-133.7 c0-88.1-0.4-99.1-2-133.7c-1.6-34.5-7.1-58.1-15.1-78.7c-8.3-21.3-19.4-39.4-37.5-57.5c-18.1-18-36.1-29.1-57.5-37.4 c-20.7-8-44.3-13.5-78.8-15.1c-34.6-1.6-45.6-2-133.8-2L500.2,175.6z M471.1,234c8.6,0,18.3,0,29.1,0c86.7,0,96.9,0.3,131.2,1.9 c31.6,1.4,48.8,6.7,60.3,11.2c15.1,5.9,25.9,12.9,37.3,24.3c11.4,11.4,18.4,22.2,24.3,37.3c4.4,11.4,9.7,28.6,11.2,60.2 c1.6,34.2,1.9,44.5,1.9,131c0,86.6-0.3,96.8-1.9,131c-1.4,31.6-6.7,48.8-11.2,60.2c-5.9,15.1-12.9,25.9-24.3,37.3 c-11.4,11.4-22.1,18.4-37.3,24.3c-11.4,4.5-28.6,9.7-60.3,11.2c-34.2,1.6-44.5,1.9-131.2,1.9c-86.7,0-96.9-0.3-131.2-1.9 c-31.6-1.5-48.8-6.7-60.3-11.2c-15.1-5.9-26-12.9-37.3-24.3c-11.4-11.4-18.4-22.1-24.3-37.3c-4.4-11.4-9.7-28.6-11.2-60.2 c-1.6-34.2-1.9-44.5-1.9-131.1c0-86.6,0.3-96.8,1.9-131c1.4-31.6,6.7-48.8,11.2-60.2c5.9-15.1,12.9-25.9,24.3-37.3 c11.4-11.4,22.2-18.4,37.3-24.3c11.4-4.5,28.6-9.7,60.3-11.2C399,234.4,410.6,234,471.1,234L471.1,234z M673.5,287.9 c-21.5,0-38.9,17.4-38.9,38.9c0,21.5,17.4,38.9,38.9,38.9c21.5,0,38.9-17.4,38.9-38.9C712.4,305.3,695,287.9,673.5,287.9 L673.5,287.9z M500.2,333.4c-92.1,0-166.7,74.6-166.7,166.6s74.6,166.5,166.7,166.5s166.7-74.5,166.7-166.5 S592.2,333.4,500.2,333.4L500.2,333.4z M500.2,391.8c59.7,0,108.2,48.4,108.2,108.1c0,59.7-48.4,108.1-108.2,108.1 C440.4,608,392,559.6,392,499.9C392,440.2,440.4,391.8,500.2,391.8L500.2,391.8z"></path> </g> </svg> 