<?xml version="1.0" encoding="UTF-8"?> <svg xmlns="http://www.w3.org/2000/svg" xmlns:xlink="http://www.w3.org/1999/xlink" version="1.1" id="Слой_1" x="0px" y="0px" viewBox="0 0 512 512" style="enable-background:new 0 0 512 512;" xml:space="preserve"> <style type="text/css"> .st0{fill-rule:evenodd;clip-rule:evenodd;} .st1{fill:#FFFFFF;} </style> <g> <rect class="st0" width="512" height="512"></rect> <path class="st1" d="M392.3,136H119.6c-13.9,0-25.1,11.3-25.1,25.1v190.7c0,13.9,11.3,25.1,25.1,25.1h272.7 c13.9,0,25.1-11.3,25.1-25.1V161.2C417.5,147.3,406.2,136,392.3,136z M293.6,256.5l104.5-86.9v173.9L293.6,256.5z M261.7,257.8 c-3.3,2.8-8.1,2.8-11.4,0L127.2,155.4h257.4L261.7,257.8z M233.6,269.1l4.2,3.5c10.5,8.8,25.8,8.8,36.3,0l4.2-3.5l106.4,88.4H127.2 L233.6,269.1z M218.3,256.5l-104.5,86.8V169.6L218.3,256.5z"></path> </g> </svg> 