<?xml version="1.0" encoding="utf-8"?> <svg xmlns="http://www.w3.org/2000/svg" xmlns:xlink="http://www.w3.org/1999/xlink" version="1.1" id="Слой_1" x="0px" y="0px" viewBox="0 0 283.5 283.5" style="enable-background:new 0 0 283.5 283.5;" xml:space="preserve"> <style type="text/css"> .st0{clip-path:url(#SVGID_00000001636509196290129460000011224426306379900088_);fill:#BFC2C4;} .st1{clip-path:url(#SVGID_00000160896295389406366460000014296836393569924524_);fill:#30404D;} .st2{clip-path:url(#SVGID_00000034794085136349684220000008303036067511855744_);fill:#BFC2C4;} .st3{clip-path:url(#SVGID_00000085226348661309117010000001267100461661474435_);fill:#BFC2C4;} .st4{clip-path:url(#SVGID_00000087393355188497922250000016499352852781620372_);fill:#BFC2C4;} .st5{clip-path:url(#SVGID_00000085940574361563508720000001608462442807658163_);fill:#BFC2C4;} .st6{clip-path:url(#SVGID_00000165225098109019259290000002506268025903070651_);fill:#BFC2C4;} .st7{clip-path:url(#SVGID_00000093897170743732150140000005716948434188392894_);fill:#BFC2C4;} .st8{clip-path:url(#SVGID_00000173839011337736261820000000140853212559676834_);fill:#BFC2C4;} .st9{clip-path:url(#SVGID_00000142135715931100884120000016499063790613002389_);fill:#BFC2C4;} .st10{clip-path:url(#SVGID_00000158018721558099455310000011976321491806673328_);fill:#BFC2C4;} .st11{clip-path:url(#SVGID_00000028323628854218565990000015196898814761063564_);fill:#BFC2C4;} .st12{clip-path:url(#SVGID_00000168117959331857382150000001023339437919569046_);fill:#BFC2C4;} .st13{clip-path:url(#SVGID_00000028299954832864192940000001516381431697004942_);fill:#BFC2C4;} .st14{clip-path:url(#SVGID_00000038412083909046791390000007293287987300201138_);fill:#BFC2C4;} </style> <g> <g> <defs> <rect id="SVGID_1_" width="283.5" height="283.5"></rect> </defs> <clipPath id="SVGID_00000049900399402817689210000006338010131806835597_"> <use xlink:href="#SVGID_1_" style="overflow:visible;"></use> </clipPath> <path style="clip-path:url(#SVGID_00000049900399402817689210000006338010131806835597_);fill:#BFC2C4;" d="M177.2,15.6v75.1 c0,8.6,7,15.6,15.6,15.6h75.1c8.6,0,15.6-7,15.6-15.6V15.6c0-8.6-7-15.6-15.6-15.6h-75.1C184.1,0,177.2,7,177.2,15.6 M240.2,70.9 h-19.7c-4.3,0-7.9-3.5-7.9-7.9V43.3c0-4.3,3.5-7.9,7.9-7.9h19.7c4.3,0,7.9,3.5,7.9,7.9V63C248,67.3,244.5,70.9,240.2,70.9"></path> </g> <g> <defs> <rect id="SVGID_00000005226517328695358710000017317696873657889212_" width="283.5" height="283.5"></rect> </defs> <clipPath id="SVGID_00000177444172799527423910000005754700560305239998_"> <use xlink:href="#SVGID_00000005226517328695358710000017317696873657889212_" style="overflow:visible;"></use> </clipPath> <path style="clip-path:url(#SVGID_00000177444172799527423910000005754700560305239998_);fill:#30404D;" d="M163.5,175.7h-43.6 c-6.7,0-12.2-5.5-12.2-12.2v-43.6c0-6.7,5.5-12.2,12.2-12.2h43.6c6.7,0,12.2,5.5,12.2,12.2v43.6 C175.7,170.3,170.3,175.7,163.5,175.7"></path> </g> <g> <defs> <rect id="SVGID_00000147222271888316055930000018082840770743264950_" width="283.5" height="283.5"></rect> </defs> <clipPath id="SVGID_00000106843859471004239380000001959899046812156304_"> <use xlink:href="#SVGID_00000147222271888316055930000018082840770743264950_" style="overflow:visible;"></use> </clipPath> <path style="clip-path:url(#SVGID_00000106843859471004239380000001959899046812156304_);fill:#BFC2C4;" d="M242.1,283.5h-17.8 c-4.3,0-7.9-3.5-7.9-7.9v-17.8c0-4.3,3.5-7.9,7.9-7.9h17.8c4.3,0,7.9,3.5,7.9,7.9v17.8C249.9,279.9,246.4,283.5,242.1,283.5"></path> </g> <g> <defs> <rect id="SVGID_00000080912029817221183670000002592102782179951780_" width="283.5" height="283.5"></rect> </defs> <clipPath id="SVGID_00000060719235907060325220000015754201424151811731_"> <use xlink:href="#SVGID_00000080912029817221183670000002592102782179951780_" style="overflow:visible;"></use> </clipPath> <path style="clip-path:url(#SVGID_00000060719235907060325220000015754201424151811731_);fill:#BFC2C4;" d="M275.6,249.9h-17.8 c-4.3,0-7.9-3.5-7.9-7.9v-17.8c0-4.3,3.5-7.9,7.9-7.9h17.8c4.3,0,7.9,3.5,7.9,7.9V242C283.5,246.4,279.9,249.9,275.6,249.9"></path> </g> <g> <defs> <rect id="SVGID_00000137820088370117507150000005185313593149744060_" width="283.5" height="283.5"></rect> </defs> <clipPath id="SVGID_00000127766319481295797010000002664639362787570613_"> <use xlink:href="#SVGID_00000137820088370117507150000005185313593149744060_" style="overflow:visible;"></use> </clipPath> <path style="clip-path:url(#SVGID_00000127766319481295797010000002664639362787570613_);fill:#BFC2C4;" d="M242.1,216.4h-17.8 c-4.3,0-7.9-3.5-7.9-7.9v-17.8c0-4.3,3.5-7.9,7.9-7.9h17.8c4.3,0,7.9,3.5,7.9,7.9v17.8C249.9,212.9,246.4,216.4,242.1,216.4"></path> </g> <g> <defs> <rect id="SVGID_00000029741519236761424740000014979840225231460252_" width="283.5" height="283.5"></rect> </defs> <clipPath id="SVGID_00000059996485211246222890000007598482279924011932_"> <use xlink:href="#SVGID_00000029741519236761424740000014979840225231460252_" style="overflow:visible;"></use> </clipPath> <path style="clip-path:url(#SVGID_00000059996485211246222890000007598482279924011932_);fill:#BFC2C4;" d="M216.4,224.3v17.8 c0,4.3-3.5,7.9-7.9,7.9h-51.3c-4.3,0-7.9-3.5-7.9-7.9v-17.8c0-4.3,3.5-7.9,7.9-7.9h51.3C212.9,216.4,216.4,220,216.4,224.3"></path> </g> <g> <defs> <rect id="SVGID_00000055672537135656899110000017164526955562750126_" width="283.5" height="283.5"></rect> </defs> <clipPath id="SVGID_00000058548070041633832730000013070498585063198111_"> <use xlink:href="#SVGID_00000055672537135656899110000017164526955562750126_" style="overflow:visible;"></use> </clipPath> <path style="clip-path:url(#SVGID_00000058548070041633832730000013070498585063198111_);fill:#BFC2C4;" d="M159.4,7.9V63 c0,4.3-3.5,7.9-7.9,7.9h-19.7c-4.3,0-7.9-3.5-7.9-7.9V7.9c0-4.3,3.5-7.9,7.9-7.9h19.7C155.9,0,159.4,3.5,159.4,7.9"></path> </g> <g> <defs> <rect id="SVGID_00000177452063411445795170000003315048801858888113_" width="283.5" height="283.5"></rect> </defs> <clipPath id="SVGID_00000138532919401300110240000017639327014815284664_"> <use xlink:href="#SVGID_00000177452063411445795170000003315048801858888113_" style="overflow:visible;"></use> </clipPath> <path style="clip-path:url(#SVGID_00000138532919401300110240000017639327014815284664_);fill:#BFC2C4;" d="M25.7,158.5H7.9 c-4.3,0-7.9-3.5-7.9-7.9v-17.8c0-4.3,3.5-7.9,7.9-7.9h17.8c4.3,0,7.9,3.5,7.9,7.9v17.8C33.5,155,30,158.5,25.7,158.5"></path> </g> <g> <defs> <rect id="SVGID_00000170974349213713338410000004559553993331482245_" width="283.5" height="283.5"></rect> </defs> <clipPath id="SVGID_00000024682588082318628450000016084895779705567655_"> <use xlink:href="#SVGID_00000170974349213713338410000004559553993331482245_" style="overflow:visible;"></use> </clipPath> <path style="clip-path:url(#SVGID_00000024682588082318628450000016084895779705567655_);fill:#BFC2C4;" d="M208.6,182.9h-17.8 c-4.3,0-7.9-3.5-7.9-7.9v-17.8c0-4.3,3.5-7.9,7.9-7.9h17.8c4.3,0,7.9,3.5,7.9,7.9V175C216.4,179.4,212.9,182.9,208.6,182.9"></path> </g> <g> <defs> <rect id="SVGID_00000079447359333426761810000010084763815005309372_" width="283.5" height="283.5"></rect> </defs> <clipPath id="SVGID_00000114034659554803623380000002927539968554719118_"> <use xlink:href="#SVGID_00000079447359333426761810000010084763815005309372_" style="overflow:visible;"></use> </clipPath> <path style="clip-path:url(#SVGID_00000114034659554803623380000002927539968554719118_);fill:#BFC2C4;" d="M141.5,283.5h-17.8 c-4.3,0-7.9-3.5-7.9-7.9v-17.8c0-4.3,3.5-7.9,7.9-7.9h17.8c4.3,0,7.9,3.5,7.9,7.9v17.8C149.4,279.9,145.9,283.5,141.5,283.5"></path> </g> <g> <defs> <rect id="SVGID_00000127732268083113504760000013453300193359296684_" width="283.5" height="283.5"></rect> </defs> <clipPath id="SVGID_00000098915649018480532970000014052844733523529650_"> <use xlink:href="#SVGID_00000127732268083113504760000013453300193359296684_" style="overflow:visible;"></use> </clipPath> <path style="clip-path:url(#SVGID_00000098915649018480532970000014052844733523529650_);fill:#BFC2C4;" d="M87.1,158.5H69.3 c-4.3,0-7.9-3.5-7.9-7.9v-17.8c0-4.3,3.5-7.9,7.9-7.9h17.8c4.3,0,7.9,3.5,7.9,7.9v17.8C95,155,91.5,158.5,87.1,158.5"></path> </g> <g> <defs> <rect id="SVGID_00000061445828125057051540000011568570460828644736_" width="283.5" height="283.5"></rect> </defs> <clipPath id="SVGID_00000142151701572348804450000007279033456532193432_"> <use xlink:href="#SVGID_00000061445828125057051540000011568570460828644736_" style="overflow:visible;"></use> </clipPath> <path style="clip-path:url(#SVGID_00000142151701572348804450000007279033456532193432_);fill:#BFC2C4;" d="M283.5,123.7V175 c0,4.3-3.5,7.9-7.9,7.9h-17.8c-4.3,0-7.9-3.5-7.9-7.9v-51.3c0-4.3,3.5-7.9,7.9-7.9h17.8C279.9,115.9,283.5,119.4,283.5,123.7"></path> </g> <g> <defs> <rect id="SVGID_00000171690450044366430920000017280655864493013900_" width="283.5" height="283.5"></rect> </defs> <clipPath id="SVGID_00000107559164005290597590000008373253388460290451_"> <use xlink:href="#SVGID_00000171690450044366430920000017280655864493013900_" style="overflow:visible;"></use> </clipPath> <path style="clip-path:url(#SVGID_00000107559164005290597590000008373253388460290451_);fill:#BFC2C4;" d="M141.5,216.4h-17.8 c-4.3,0-7.9-3.5-7.9-7.9v-17.8c0-4.3,3.5-7.9,7.9-7.9h17.8c4.3,0,7.9,3.5,7.9,7.9v17.8C149.4,212.9,145.9,216.4,141.5,216.4"></path> </g> <g> <defs> <rect id="SVGID_00000067951434606196566300000008667114651621570182_" width="283.5" height="283.5"></rect> </defs> <clipPath id="SVGID_00000028294059327199602790000000193374806549170567_"> <use xlink:href="#SVGID_00000067951434606196566300000008667114651621570182_" style="overflow:visible;"></use> </clipPath> <path style="clip-path:url(#SVGID_00000028294059327199602790000000193374806549170567_);fill:#BFC2C4;" d="M0,15.6v75.1 c0,8.6,7,15.6,15.6,15.6h75.1c8.6,0,15.6-7,15.6-15.6V15.6C106.3,7,99.3,0,90.7,0H15.6C7,0,0,7,0,15.6 M63,70.9H43.3 c-4.3,0-7.9-3.5-7.9-7.9V43.3c0-4.3,3.5-7.9,7.9-7.9H63c4.3,0,7.9,3.5,7.9,7.9V63C70.9,67.3,67.3,70.9,63,70.9"></path> </g> <g> <defs> <rect id="SVGID_00000057146552146149785890000008310865783762098335_" width="283.5" height="283.5"></rect> </defs> <clipPath id="SVGID_00000101066955077604163880000012247390291840108978_"> <use xlink:href="#SVGID_00000057146552146149785890000008310865783762098335_" style="overflow:visible;"></use> </clipPath> <path style="clip-path:url(#SVGID_00000101066955077604163880000012247390291840108978_);fill:#BFC2C4;" d="M0,192.8v75.1 c0,8.6,7,15.6,15.6,15.6h75.1c8.6,0,15.6-7,15.6-15.6v-75.1c0-8.6-7-15.6-15.6-15.6H15.6C7,177.2,0,184.1,0,192.8 M63,248H43.3 c-4.3,0-7.9-3.5-7.9-7.9v-19.7c0-4.3,3.5-7.9,7.9-7.9H63c4.3,0,7.9,3.5,7.9,7.9v19.7C70.9,244.5,67.3,248,63,248"></path> </g> </g> </svg> 