<?xml version="1.0" encoding="utf-8"?> <svg xmlns="http://www.w3.org/2000/svg" xmlns:xlink="http://www.w3.org/1999/xlink" version="1.1" id="Слой_1" x="0px" y="0px" viewBox="0 0 283.5 283.5" style="enable-background:new 0 0 283.5 283.5;" xml:space="preserve"> <style type="text/css"> .st0{clip-path:url(#SVGID_00000114761771995157029100000006346620561793122181_);} .st1{clip-path:url(#SVGID_00000123438328666083623440000003414893991570986679_);fill:#BFC2C4;} .st2{clip-path:url(#SVGID_00000167360198134259642780000001013308980744779678_);fill:#BFC2C4;} .st3{clip-path:url(#SVGID_00000132805791891228684150000015707195273477329321_);fill:#BFC2C4;} .st4{clip-path:url(#SVGID_00000046330263461477873020000002669709734407102397_);fill:#BFC2C4;} .st5{clip-path:url(#SVGID_00000025416643876895789350000006046742223868215981_);fill:#BFC2C4;} .st6{clip-path:url(#SVGID_00000128445889894073016870000013746828352374526627_);fill:#BFC2C4;} .st7{clip-path:url(#SVGID_00000036232933773707724500000013320343917502027934_);fill:#BFC2C4;} .st8{clip-path:url(#SVGID_00000044148213939747294310000014746995449540597949_);fill:#BFC2C4;} .st9{clip-path:url(#SVGID_00000020397068681970057960000015277996325883759019_);fill:#BFC2C4;} .st10{clip-path:url(#SVGID_00000027601347546376845950000006998819373352077459_);fill:#BFC2C4;} .st11{clip-path:url(#SVGID_00000077309746493041450200000015617361054611777665_);fill:#BFC2C4;} .st12{clip-path:url(#SVGID_00000046323216100116994250000011906795924859361676_);fill:#BFC2C4;} .st13{clip-path:url(#SVGID_00000086651506000100773040000010305578174983622566_);fill:#30404D;} .st14{clip-path:url(#SVGID_00000066477311043536925500000011714246023108467350_);fill:#30404D;} .st15{clip-path:url(#SVGID_00000052786725325205408720000004857280825777162902_);fill:#30404D;} </style> <g> <g> <g> <defs> <rect id="SVGID_1_" width="283.5" height="283.5"></rect> </defs> <clipPath id="SVGID_00000120534897781257199440000007757656586696884615_"> <use xlink:href="#SVGID_1_" style="overflow:visible;"></use> </clipPath> <g style="clip-path:url(#SVGID_00000120534897781257199440000007757656586696884615_);"> <g> <defs> <rect id="SVGID_00000134217101860883618880000001853328909224920247_" width="283.5" height="283.5"></rect> </defs> <clipPath id="SVGID_00000044878233233703284120000006074744320565565364_"> <use xlink:href="#SVGID_00000134217101860883618880000001853328909224920247_" style="overflow:visible;"></use> </clipPath> <path style="clip-path:url(#SVGID_00000044878233233703284120000006074744320565565364_);fill:#BFC2C4;" d="M163.5,175.7h-43.6 c-6.7,0-12.2-5.5-12.2-12.2v-43.6c0-6.7,5.5-12.2,12.2-12.2h43.6c6.7,0,12.2,5.5,12.2,12.2v43.6 C175.7,170.3,170.3,175.7,163.5,175.7"></path> </g> <g> <defs> <rect id="SVGID_00000125590817523225594650000004117698885619129985_" width="283.5" height="283.5"></rect> </defs> <clipPath id="SVGID_00000182511236718022880820000000688171601323539383_"> <use xlink:href="#SVGID_00000125590817523225594650000004117698885619129985_" style="overflow:visible;"></use> </clipPath> <path style="clip-path:url(#SVGID_00000182511236718022880820000000688171601323539383_);fill:#BFC2C4;" d="M242.1,283.5h-17.8 c-4.3,0-7.9-3.5-7.9-7.9v-17.8c0-4.3,3.5-7.9,7.9-7.9h17.8c4.3,0,7.9,3.5,7.9,7.9v17.8C249.9,279.9,246.4,283.5,242.1,283.5"></path> </g> <g> <defs> <rect id="SVGID_00000049936644113738744090000006662561677238020480_" width="283.5" height="283.5"></rect> </defs> <clipPath id="SVGID_00000178202123924151621600000001110822806964397231_"> <use xlink:href="#SVGID_00000049936644113738744090000006662561677238020480_" style="overflow:visible;"></use> </clipPath> <path style="clip-path:url(#SVGID_00000178202123924151621600000001110822806964397231_);fill:#BFC2C4;" d="M275.6,249.9h-17.8 c-4.3,0-7.9-3.5-7.9-7.9v-17.8c0-4.3,3.5-7.9,7.9-7.9h17.8c4.3,0,7.9,3.5,7.9,7.9V242C283.5,246.4,279.9,249.9,275.6,249.9"></path> </g> <g> <defs> <rect id="SVGID_00000095321741857469391740000006216029180580936869_" width="283.5" height="283.5"></rect> </defs> <clipPath id="SVGID_00000085225026717249494100000010865457161628272036_"> <use xlink:href="#SVGID_00000095321741857469391740000006216029180580936869_" style="overflow:visible;"></use> </clipPath> <path style="clip-path:url(#SVGID_00000085225026717249494100000010865457161628272036_);fill:#BFC2C4;" d="M242.1,216.4h-17.8 c-4.3,0-7.9-3.5-7.9-7.9v-17.8c0-4.3,3.5-7.9,7.9-7.9h17.8c4.3,0,7.9,3.5,7.9,7.9v17.8C249.9,212.9,246.4,216.4,242.1,216.4"></path> </g> <g> <defs> <rect id="SVGID_00000070111399822299397560000006339819949767868291_" width="283.5" height="283.5"></rect> </defs> <clipPath id="SVGID_00000104697462632603033500000015166243051036267672_"> <use xlink:href="#SVGID_00000070111399822299397560000006339819949767868291_" style="overflow:visible;"></use> </clipPath> <path style="clip-path:url(#SVGID_00000104697462632603033500000015166243051036267672_);fill:#BFC2C4;" d="M216.4,224.3v17.8 c0,4.3-3.5,7.9-7.9,7.9h-51.3c-4.3,0-7.9-3.5-7.9-7.9v-17.8c0-4.3,3.5-7.9,7.9-7.9h51.3C212.9,216.4,216.4,220,216.4,224.3"></path> </g> <g> <defs> <rect id="SVGID_00000013177139680144790150000001221300204267213697_" width="283.5" height="283.5"></rect> </defs> <clipPath id="SVGID_00000114039277064433633750000012686529721517485240_"> <use xlink:href="#SVGID_00000013177139680144790150000001221300204267213697_" style="overflow:visible;"></use> </clipPath> <path style="clip-path:url(#SVGID_00000114039277064433633750000012686529721517485240_);fill:#BFC2C4;" d="M159.4,7.9V63 c0,4.3-3.5,7.9-7.9,7.9h-19.7c-4.3,0-7.9-3.5-7.9-7.9V7.9c0-4.3,3.5-7.9,7.9-7.9h19.7C155.9,0,159.4,3.5,159.4,7.9"></path> </g> <g> <defs> <rect id="SVGID_00000147919650699585657620000004563632398952814469_" width="283.5" height="283.5"></rect> </defs> <clipPath id="SVGID_00000067225151402573005850000018285400611482105988_"> <use xlink:href="#SVGID_00000147919650699585657620000004563632398952814469_" style="overflow:visible;"></use> </clipPath> <path style="clip-path:url(#SVGID_00000067225151402573005850000018285400611482105988_);fill:#BFC2C4;" d="M25.7,158.5H7.9 c-4.3,0-7.9-3.5-7.9-7.9v-17.8c0-4.3,3.5-7.9,7.9-7.9h17.8c4.3,0,7.9,3.5,7.9,7.9v17.8C33.5,155,30,158.5,25.7,158.5"></path> </g> <g> <defs> <rect id="SVGID_00000114791761051576222430000006392455421892055199_" width="283.5" height="283.5"></rect> </defs> <clipPath id="SVGID_00000124133675634917181320000015649494727837940876_"> <use xlink:href="#SVGID_00000114791761051576222430000006392455421892055199_" style="overflow:visible;"></use> </clipPath> <path style="clip-path:url(#SVGID_00000124133675634917181320000015649494727837940876_);fill:#BFC2C4;" d="M208.6,182.9h-17.8 c-4.3,0-7.9-3.5-7.9-7.9v-17.8c0-4.3,3.5-7.9,7.9-7.9h17.8c4.3,0,7.9,3.5,7.9,7.9V175C216.4,179.4,212.9,182.9,208.6,182.9"></path> </g> <g> <defs> <rect id="SVGID_00000172437906505254331120000011034751613639850922_" width="283.5" height="283.5"></rect> </defs> <clipPath id="SVGID_00000101086621408663905540000007786756636605021326_"> <use xlink:href="#SVGID_00000172437906505254331120000011034751613639850922_" style="overflow:visible;"></use> </clipPath> <path style="clip-path:url(#SVGID_00000101086621408663905540000007786756636605021326_);fill:#BFC2C4;" d="M141.5,283.5h-17.8 c-4.3,0-7.9-3.5-7.9-7.9v-17.8c0-4.3,3.5-7.9,7.9-7.9h17.8c4.3,0,7.9,3.5,7.9,7.9v17.8C149.4,279.9,145.9,283.5,141.5,283.5"></path> </g> <g> <defs> <rect id="SVGID_00000139275044290837992410000014283736229955980467_" width="283.5" height="283.5"></rect> </defs> <clipPath id="SVGID_00000076591381223826243360000011824783015206518940_"> <use xlink:href="#SVGID_00000139275044290837992410000014283736229955980467_" style="overflow:visible;"></use> </clipPath> <path style="clip-path:url(#SVGID_00000076591381223826243360000011824783015206518940_);fill:#BFC2C4;" d="M87.1,158.5H69.3 c-4.3,0-7.9-3.5-7.9-7.9v-17.8c0-4.3,3.5-7.9,7.9-7.9h17.8c4.3,0,7.9,3.5,7.9,7.9v17.8C95,155,91.5,158.5,87.1,158.5"></path> </g> <g> <defs> <rect id="SVGID_00000011743859780507015080000008000340412971727768_" width="283.5" height="283.5"></rect> </defs> <clipPath id="SVGID_00000109024897159295366440000006796985247129573818_"> <use xlink:href="#SVGID_00000011743859780507015080000008000340412971727768_" style="overflow:visible;"></use> </clipPath> <path style="clip-path:url(#SVGID_00000109024897159295366440000006796985247129573818_);fill:#BFC2C4;" d="M283.5,123.7V175 c0,4.3-3.5,7.9-7.9,7.9h-17.8c-4.3,0-7.9-3.5-7.9-7.9v-51.3c0-4.3,3.5-7.9,7.9-7.9h17.8C279.9,115.9,283.5,119.4,283.5,123.7"></path> </g> <g> <defs> <rect id="SVGID_00000017495521101029402360000009886310598493528226_" width="283.5" height="283.5"></rect> </defs> <clipPath id="SVGID_00000022551401087632888190000017457709613802160558_"> <use xlink:href="#SVGID_00000017495521101029402360000009886310598493528226_" style="overflow:visible;"></use> </clipPath> <path style="clip-path:url(#SVGID_00000022551401087632888190000017457709613802160558_);fill:#BFC2C4;" d="M141.5,216.4h-17.8 c-4.3,0-7.9-3.5-7.9-7.9v-17.8c0-4.3,3.5-7.9,7.9-7.9h17.8c4.3,0,7.9,3.5,7.9,7.9v17.8C149.4,212.9,145.9,216.4,141.5,216.4"></path> </g> <g> <defs> <rect id="SVGID_00000116921660996771418590000002621858810455193272_" width="283.5" height="283.5"></rect> </defs> <clipPath id="SVGID_00000011723147375308618220000011095344568050462866_"> <use xlink:href="#SVGID_00000116921660996771418590000002621858810455193272_" style="overflow:visible;"></use> </clipPath> <path style="clip-path:url(#SVGID_00000011723147375308618220000011095344568050462866_);fill:#30404D;" d="M177.2,15.6v75.1 c0,8.6,7,15.6,15.6,15.6h75.1c8.6,0,15.6-7,15.6-15.6V15.6c0-8.6-7-15.6-15.6-15.6h-75.1C184.1,0,177.2,7,177.2,15.6 M240.2,70.9h-19.7c-4.3,0-7.9-3.5-7.9-7.9V43.3c0-4.3,3.5-7.9,7.9-7.9h19.7c4.3,0,7.9,3.5,7.9,7.9V63 C248,67.3,244.5,70.9,240.2,70.9"></path> </g> <g> <defs> <rect id="SVGID_00000080924168708250806510000007901860033201000855_" width="283.5" height="283.5"></rect> </defs> <clipPath id="SVGID_00000111160433549899970080000008366276257629677707_"> <use xlink:href="#SVGID_00000080924168708250806510000007901860033201000855_" style="overflow:visible;"></use> </clipPath> <path style="clip-path:url(#SVGID_00000111160433549899970080000008366276257629677707_);fill:#30404D;" d="M0,15.6v75.1 c0,8.6,7,15.6,15.6,15.6h75.1c8.6,0,15.6-7,15.6-15.6V15.6C106.3,7,99.3,0,90.7,0H15.6C7,0,0,7,0,15.6 M63,70.9H43.3 c-4.3,0-7.9-3.5-7.9-7.9V43.3c0-4.3,3.5-7.9,7.9-7.9H63c4.3,0,7.9,3.5,7.9,7.9V63C70.9,67.3,67.3,70.9,63,70.9"></path> </g> <g> <defs> <rect id="SVGID_00000160911265021272948950000011769253229450197639_" width="283.5" height="283.5"></rect> </defs> <clipPath id="SVGID_00000118362235773028035370000000941644002677794461_"> <use xlink:href="#SVGID_00000160911265021272948950000011769253229450197639_" style="overflow:visible;"></use> </clipPath> <path style="clip-path:url(#SVGID_00000118362235773028035370000000941644002677794461_);fill:#30404D;" d="M0,192.8v75.1 c0,8.6,7,15.6,15.6,15.6h75.1c8.6,0,15.6-7,15.6-15.6v-75.1c0-8.6-7-15.6-15.6-15.6H15.6C7,177.2,0,184.1,0,192.8 M63,248H43.3 c-4.3,0-7.9-3.5-7.9-7.9v-19.7c0-4.3,3.5-7.9,7.9-7.9H63c4.3,0,7.9,3.5,7.9,7.9v19.7C70.9,244.5,67.3,248,63,248"></path> </g> </g> </g> </g> </g> </svg> 