<?xml version="1.0" encoding="utf-8"?> <svg xmlns="http://www.w3.org/2000/svg" xmlns:xlink="http://www.w3.org/1999/xlink" version="1.1" id="Слой_1" x="0px" y="0px" viewBox="0 0 283.5 283.5" style="enable-background:new 0 0 283.5 283.5;" xml:space="preserve"> <style type="text/css"> .st0{clip-path:url(#SVGID_00000010281960489860304240000011776273845100741291_);} .st1{clip-path:url(#SVGID_00000084501392674276890500000014328519834171367602_);fill:#BFC2C4;} .st2{clip-path:url(#SVGID_00000161616363771105216380000010176454694353097110_);fill:#BFC2C4;} .st3{clip-path:url(#SVGID_00000049923773353157888620000004143392265230334625_);fill:#30404D;} .st4{clip-path:url(#SVGID_00000168106156676317744400000011912070023539516549_);fill:#30404D;} .st5{clip-path:url(#SVGID_00000076592607241853476280000018344219089439759807_);fill:#30404D;} .st6{clip-path:url(#SVGID_00000038403351201697411440000017374594463459576985_);fill:#30404D;} .st7{clip-path:url(#SVGID_00000103966230522441509120000006502867449529987480_);fill:#30404D;} .st8{clip-path:url(#SVGID_00000053530801270122194500000003061833654618473869_);fill:#30404D;} .st9{clip-path:url(#SVGID_00000019664687038967051510000005588815486654004874_);fill:#30404D;} .st10{clip-path:url(#SVGID_00000153704466198092081950000015224380224017691066_);fill:#30404D;} .st11{clip-path:url(#SVGID_00000034811282616420301990000016373723879285600435_);fill:#30404D;} .st12{clip-path:url(#SVGID_00000003813855632294637880000005527949479949402243_);fill:#30404D;} .st13{clip-path:url(#SVGID_00000066503204455790986060000008177309680463021236_);fill:#30404D;} .st14{clip-path:url(#SVGID_00000034084268194242014720000014521852431077114531_);fill:#BFC2C4;} .st15{clip-path:url(#SVGID_00000074425759413132072970000014970726198433407888_);fill:#BFC2C4;} </style> <g> <g> <g> <defs> <rect id="SVGID_1_" width="283.5" height="283.5"></rect> </defs> <clipPath id="SVGID_00000050634354890627026690000008218252659346546105_"> <use xlink:href="#SVGID_1_" style="overflow:visible;"></use> </clipPath> <g style="clip-path:url(#SVGID_00000050634354890627026690000008218252659346546105_);"> <g> <defs> <rect id="SVGID_00000050628819779016854800000016938724925983204480_" width="283.5" height="283.5"></rect> </defs> <clipPath id="SVGID_00000160160491981127887010000010052143057379303552_"> <use xlink:href="#SVGID_00000050628819779016854800000016938724925983204480_" style="overflow:visible;"></use> </clipPath> <path style="clip-path:url(#SVGID_00000160160491981127887010000010052143057379303552_);fill:#BFC2C4;" d="M177.2,15.6v75.1 c0,8.6,7,15.6,15.6,15.6h75.1c8.6,0,15.6-7,15.6-15.6V15.6c0-8.6-7-15.6-15.6-15.6h-75.1C184.1,0,177.2,7,177.2,15.6 M240.2,70.9h-19.7c-4.3,0-7.9-3.5-7.9-7.9V43.3c0-4.3,3.5-7.9,7.9-7.9h19.7c4.3,0,7.9,3.5,7.9,7.9V63 C248,67.3,244.5,70.9,240.2,70.9"></path> </g> <g> <defs> <rect id="SVGID_00000111880757647455541080000008097779922291249845_" width="283.5" height="283.5"></rect> </defs> <clipPath id="SVGID_00000030462277968180406500000017977301014944639895_"> <use xlink:href="#SVGID_00000111880757647455541080000008097779922291249845_" style="overflow:visible;"></use> </clipPath> <path style="clip-path:url(#SVGID_00000030462277968180406500000017977301014944639895_);fill:#BFC2C4;" d="M163.5,175.7h-43.6 c-6.7,0-12.2-5.5-12.2-12.2v-43.6c0-6.7,5.5-12.2,12.2-12.2h43.6c6.7,0,12.2,5.5,12.2,12.2v43.6 C175.7,170.3,170.3,175.7,163.5,175.7"></path> </g> <g> <defs> <rect id="SVGID_00000062875959017699195690000017883278670421272993_" width="283.5" height="283.5"></rect> </defs> <clipPath id="SVGID_00000138533600543073428880000012200178486646298242_"> <use xlink:href="#SVGID_00000062875959017699195690000017883278670421272993_" style="overflow:visible;"></use> </clipPath> <path style="clip-path:url(#SVGID_00000138533600543073428880000012200178486646298242_);fill:#30404D;" d="M242.1,283.5h-17.8 c-4.3,0-7.9-3.5-7.9-7.9v-17.8c0-4.3,3.5-7.9,7.9-7.9h17.8c4.3,0,7.9,3.5,7.9,7.9v17.8C249.9,279.9,246.4,283.5,242.1,283.5"></path> </g> <g> <defs> <rect id="SVGID_00000149371992409229331690000017843312124089434503_" width="283.5" height="283.5"></rect> </defs> <clipPath id="SVGID_00000000202243321841635810000001095415071871767452_"> <use xlink:href="#SVGID_00000149371992409229331690000017843312124089434503_" style="overflow:visible;"></use> </clipPath> <path style="clip-path:url(#SVGID_00000000202243321841635810000001095415071871767452_);fill:#30404D;" d="M275.6,249.9h-17.8 c-4.3,0-7.9-3.5-7.9-7.9v-17.8c0-4.3,3.5-7.9,7.9-7.9h17.8c4.3,0,7.9,3.5,7.9,7.9V242C283.5,246.4,279.9,249.9,275.6,249.9"></path> </g> <g> <defs> <rect id="SVGID_00000173157554808476034310000015745509020766454931_" width="283.5" height="283.5"></rect> </defs> <clipPath id="SVGID_00000145031636127812357870000001485431530247159172_"> <use xlink:href="#SVGID_00000173157554808476034310000015745509020766454931_" style="overflow:visible;"></use> </clipPath> <path style="clip-path:url(#SVGID_00000145031636127812357870000001485431530247159172_);fill:#30404D;" d="M242.1,216.4h-17.8 c-4.3,0-7.9-3.5-7.9-7.9v-17.8c0-4.3,3.5-7.9,7.9-7.9h17.8c4.3,0,7.9,3.5,7.9,7.9v17.8C249.9,212.9,246.4,216.4,242.1,216.4"></path> </g> <g> <defs> <rect id="SVGID_00000180364265801813773140000001925568048661776566_" width="283.5" height="283.5"></rect> </defs> <clipPath id="SVGID_00000168825624964425267060000006808148216799596970_"> <use xlink:href="#SVGID_00000180364265801813773140000001925568048661776566_" style="overflow:visible;"></use> </clipPath> <path style="clip-path:url(#SVGID_00000168825624964425267060000006808148216799596970_);fill:#30404D;" d="M216.4,224.3v17.8 c0,4.3-3.5,7.9-7.9,7.9h-51.3c-4.3,0-7.9-3.5-7.9-7.9v-17.8c0-4.3,3.5-7.9,7.9-7.9h51.3C212.9,216.4,216.4,220,216.4,224.3"></path> </g> <g> <defs> <rect id="SVGID_00000008111616219470217910000010676280163189672834_" width="283.5" height="283.5"></rect> </defs> <clipPath id="SVGID_00000175320708161921448680000016903084921690997922_"> <use xlink:href="#SVGID_00000008111616219470217910000010676280163189672834_" style="overflow:visible;"></use> </clipPath> <path style="clip-path:url(#SVGID_00000175320708161921448680000016903084921690997922_);fill:#30404D;" d="M159.4,7.9V63 c0,4.3-3.5,7.9-7.9,7.9h-19.7c-4.3,0-7.9-3.5-7.9-7.9V7.9c0-4.3,3.5-7.9,7.9-7.9h19.7C155.9,0,159.4,3.5,159.4,7.9"></path> </g> <g> <defs> <rect id="SVGID_00000154402827093083903290000017351202330202583720_" width="283.5" height="283.5"></rect> </defs> <clipPath id="SVGID_00000027579702756518997660000009700607978626430133_"> <use xlink:href="#SVGID_00000154402827093083903290000017351202330202583720_" style="overflow:visible;"></use> </clipPath> <path style="clip-path:url(#SVGID_00000027579702756518997660000009700607978626430133_);fill:#30404D;" d="M25.7,158.5H7.9 c-4.3,0-7.9-3.5-7.9-7.9v-17.8c0-4.3,3.5-7.9,7.9-7.9h17.8c4.3,0,7.9,3.5,7.9,7.9v17.8C33.5,155,30,158.5,25.7,158.5"></path> </g> <g> <defs> <rect id="SVGID_00000132803243675275158920000003321418843448932248_" width="283.5" height="283.5"></rect> </defs> <clipPath id="SVGID_00000118389832883066236440000010280817422593671560_"> <use xlink:href="#SVGID_00000132803243675275158920000003321418843448932248_" style="overflow:visible;"></use> </clipPath> <path style="clip-path:url(#SVGID_00000118389832883066236440000010280817422593671560_);fill:#30404D;" d="M208.6,182.9h-17.8 c-4.3,0-7.9-3.5-7.9-7.9v-17.8c0-4.3,3.5-7.9,7.9-7.9h17.8c4.3,0,7.9,3.5,7.9,7.9V175C216.4,179.4,212.9,182.9,208.6,182.9"></path> </g> <g> <defs> <rect id="SVGID_00000160882020334783647160000004828840752776195229_" width="283.5" height="283.5"></rect> </defs> <clipPath id="SVGID_00000119100129429093512770000008114525912589630124_"> <use xlink:href="#SVGID_00000160882020334783647160000004828840752776195229_" style="overflow:visible;"></use> </clipPath> <path style="clip-path:url(#SVGID_00000119100129429093512770000008114525912589630124_);fill:#30404D;" d="M141.5,283.5h-17.8 c-4.3,0-7.9-3.5-7.9-7.9v-17.8c0-4.3,3.5-7.9,7.9-7.9h17.8c4.3,0,7.9,3.5,7.9,7.9v17.8C149.4,279.9,145.9,283.5,141.5,283.5"></path> </g> <g> <defs> <rect id="SVGID_00000129908791806409905550000003730391059832136837_" width="283.5" height="283.5"></rect> </defs> <clipPath id="SVGID_00000043456626270906253050000002560604191289293993_"> <use xlink:href="#SVGID_00000129908791806409905550000003730391059832136837_" style="overflow:visible;"></use> </clipPath> <path style="clip-path:url(#SVGID_00000043456626270906253050000002560604191289293993_);fill:#30404D;" d="M87.1,158.5H69.3 c-4.3,0-7.9-3.5-7.9-7.9v-17.8c0-4.3,3.5-7.9,7.9-7.9h17.8c4.3,0,7.9,3.5,7.9,7.9v17.8C95,155,91.5,158.5,87.1,158.5"></path> </g> <g> <defs> <rect id="SVGID_00000072979240904655639940000014372970631489269419_" width="283.5" height="283.5"></rect> </defs> <clipPath id="SVGID_00000012458635049290469550000006769994737109037717_"> <use xlink:href="#SVGID_00000072979240904655639940000014372970631489269419_" style="overflow:visible;"></use> </clipPath> <path style="clip-path:url(#SVGID_00000012458635049290469550000006769994737109037717_);fill:#30404D;" d="M283.5,123.7V175 c0,4.3-3.5,7.9-7.9,7.9h-17.8c-4.3,0-7.9-3.5-7.9-7.9v-51.3c0-4.3,3.5-7.9,7.9-7.9h17.8C279.9,115.9,283.5,119.4,283.5,123.7"></path> </g> <g> <defs> <rect id="SVGID_00000037672375387439489710000003287837790834080924_" width="283.5" height="283.5"></rect> </defs> <clipPath id="SVGID_00000182502990578437687880000000806008360168380605_"> <use xlink:href="#SVGID_00000037672375387439489710000003287837790834080924_" style="overflow:visible;"></use> </clipPath> <path style="clip-path:url(#SVGID_00000182502990578437687880000000806008360168380605_);fill:#30404D;" d="M141.5,216.4h-17.8 c-4.3,0-7.9-3.5-7.9-7.9v-17.8c0-4.3,3.5-7.9,7.9-7.9h17.8c4.3,0,7.9,3.5,7.9,7.9v17.8C149.4,212.9,145.9,216.4,141.5,216.4"></path> </g> <g> <defs> <rect id="SVGID_00000119100954389366532220000012727845064852580235_" width="283.5" height="283.5"></rect> </defs> <clipPath id="SVGID_00000142160943138841447450000002073403873635551673_"> <use xlink:href="#SVGID_00000119100954389366532220000012727845064852580235_" style="overflow:visible;"></use> </clipPath> <path style="clip-path:url(#SVGID_00000142160943138841447450000002073403873635551673_);fill:#BFC2C4;" d="M0,15.6v75.1 c0,8.6,7,15.6,15.6,15.6h75.1c8.6,0,15.6-7,15.6-15.6V15.6C106.3,7,99.3,0,90.7,0H15.6C7,0,0,7,0,15.6 M63,70.9H43.3 c-4.3,0-7.9-3.5-7.9-7.9V43.3c0-4.3,3.5-7.9,7.9-7.9H63c4.3,0,7.9,3.5,7.9,7.9V63C70.9,67.3,67.3,70.9,63,70.9"></path> </g> <g> <defs> <rect id="SVGID_00000002360311369383224800000011382049828141275813_" width="283.5" height="283.5"></rect> </defs> <clipPath id="SVGID_00000111165736436091553290000005713767148235759758_"> <use xlink:href="#SVGID_00000002360311369383224800000011382049828141275813_" style="overflow:visible;"></use> </clipPath> <path style="clip-path:url(#SVGID_00000111165736436091553290000005713767148235759758_);fill:#BFC2C4;" d="M0,192.8v75.1 c0,8.6,7,15.6,15.6,15.6h75.1c8.6,0,15.6-7,15.6-15.6v-75.1c0-8.6-7-15.6-15.6-15.6H15.6C7,177.2,0,184.1,0,192.8 M63,248H43.3 c-4.3,0-7.9-3.5-7.9-7.9v-19.7c0-4.3,3.5-7.9,7.9-7.9H63c4.3,0,7.9,3.5,7.9,7.9v19.7C70.9,244.5,67.3,248,63,248"></path> </g> </g> </g> </g> </g> </svg> 