<?xml version="1.0" encoding="utf-8"?> <svg xmlns="http://www.w3.org/2000/svg" xmlns:xlink="http://www.w3.org/1999/xlink" version="1.1" id="Слой_1" x="0px" y="0px" viewBox="0 0 283.5 283.5" style="enable-background:new 0 0 283.5 283.5;" xml:space="preserve"> <style type="text/css"> .st0{clip-path:url(#SVGID_00000125585975258363639470000000173846469388359349_);} .st1{clip-path:url(#SVGID_00000099649504438038005750000016071431920175641266_);fill:#30404D;} .st2{clip-path:url(#SVGID_00000161621183179843866810000010718570642201528996_);fill:#30404D;} .st3{clip-path:url(#SVGID_00000078046049698352860240000002216940793200001677_);fill:#30404D;} .st4{clip-path:url(#SVGID_00000183931429042331404010000007599721321945598104_);fill:#30404D;} .st5{clip-path:url(#SVGID_00000064338238995774842330000004136239782016562589_);fill:#30404D;} .st6{clip-path:url(#SVGID_00000039828379382178203110000008288239600003959226_);fill:#30404D;} .st7{clip-path:url(#SVGID_00000116201295122702446810000002859154332577866903_);fill:#30404D;} .st8{clip-path:url(#SVGID_00000031899124887473521470000016926470504855906232_);fill:#30404D;} .st9{clip-path:url(#SVGID_00000091698814676610056590000005958946476285411988_);fill:#30404D;} .st10{clip-path:url(#SVGID_00000071547643768378896030000006509330684262553485_);fill:#30404D;} .st11{clip-path:url(#SVGID_00000003827340694005989580000012296035000781939611_);fill:#30404D;} .st12{clip-path:url(#SVGID_00000182522761796474614890000000948482173601762236_);fill:#30404D;} .st13{clip-path:url(#SVGID_00000109721904058770347770000004870149608905804933_);fill:#30404D;} .st14{clip-path:url(#SVGID_00000113325414790621894750000011616607996008583355_);fill:#30404D;} .st15{clip-path:url(#SVGID_00000036236767199925951410000006042180092734869932_);fill:#30404D;} </style> <g> <g> <g> <g> <defs> <rect id="SVGID_1_" width="283.5" height="283.5"></rect> </defs> <clipPath id="SVGID_00000170257802200068803820000003469869612168158369_"> <use xlink:href="#SVGID_1_" style="overflow:visible;"></use> </clipPath> <g style="clip-path:url(#SVGID_00000170257802200068803820000003469869612168158369_);"> <g> <g> <defs> <rect id="SVGID_00000151515370368973728390000015624105792424070030_" width="283.5" height="283.5"></rect> </defs> <clipPath id="SVGID_00000003785978428190934390000004578242017128191148_"> <use xlink:href="#SVGID_00000151515370368973728390000015624105792424070030_" style="overflow:visible;"></use> </clipPath> <path style="clip-path:url(#SVGID_00000003785978428190934390000004578242017128191148_);fill:#30404D;" d="M163.5,175.7 h-43.6c-6.7,0-12.2-5.5-12.2-12.2v-43.6c0-6.7,5.5-12.2,12.2-12.2h43.6c6.7,0,12.2,5.5,12.2,12.2v43.6 C175.7,170.3,170.3,175.7,163.5,175.7"></path> </g> </g> <g> <g> <defs> <rect id="SVGID_00000096747696483159681080000007182945515660517008_" width="283.5" height="283.5"></rect> </defs> <clipPath id="SVGID_00000124162636028555671050000018043204267530395821_"> <use xlink:href="#SVGID_00000096747696483159681080000007182945515660517008_" style="overflow:visible;"></use> </clipPath> <path style="clip-path:url(#SVGID_00000124162636028555671050000018043204267530395821_);fill:#30404D;" d="M242.1,283.5 h-17.8c-4.3,0-7.9-3.5-7.9-7.9v-17.8c0-4.3,3.5-7.9,7.9-7.9h17.8c4.3,0,7.9,3.5,7.9,7.9v17.8 C249.9,279.9,246.4,283.5,242.1,283.5"></path> </g> </g> <g> <g> <defs> <rect id="SVGID_00000183935092780207393240000014965360513206942373_" width="283.5" height="283.5"></rect> </defs> <clipPath id="SVGID_00000053531638978633536350000004127810953280989603_"> <use xlink:href="#SVGID_00000183935092780207393240000014965360513206942373_" style="overflow:visible;"></use> </clipPath> <path style="clip-path:url(#SVGID_00000053531638978633536350000004127810953280989603_);fill:#30404D;" d="M275.6,249.9 h-17.8c-4.3,0-7.9-3.5-7.9-7.9v-17.8c0-4.3,3.5-7.9,7.9-7.9h17.8c4.3,0,7.9,3.5,7.9,7.9V242 C283.5,246.4,279.9,249.9,275.6,249.9"></path> </g> </g> <g> <g> <defs> <rect id="SVGID_00000027592329630839825140000002422517130504086178_" width="283.5" height="283.5"></rect> </defs> <clipPath id="SVGID_00000017498510183116271920000014812618816141993362_"> <use xlink:href="#SVGID_00000027592329630839825140000002422517130504086178_" style="overflow:visible;"></use> </clipPath> <path style="clip-path:url(#SVGID_00000017498510183116271920000014812618816141993362_);fill:#30404D;" d="M242.1,216.4 h-17.8c-4.3,0-7.9-3.5-7.9-7.9v-17.8c0-4.3,3.5-7.9,7.9-7.9h17.8c4.3,0,7.9,3.5,7.9,7.9v17.8 C249.9,212.9,246.4,216.4,242.1,216.4"></path> </g> </g> <g> <g> <defs> <rect id="SVGID_00000003104462071208165650000011524500850401255100_" width="283.5" height="283.5"></rect> </defs> <clipPath id="SVGID_00000142878200840022345280000001813102629622950023_"> <use xlink:href="#SVGID_00000003104462071208165650000011524500850401255100_" style="overflow:visible;"></use> </clipPath> <path style="clip-path:url(#SVGID_00000142878200840022345280000001813102629622950023_);fill:#30404D;" d="M216.4,224.3 v17.8c0,4.3-3.5,7.9-7.9,7.9h-51.3c-4.3,0-7.9-3.5-7.9-7.9v-17.8c0-4.3,3.5-7.9,7.9-7.9h51.3 C212.9,216.4,216.4,220,216.4,224.3"></path> </g> </g> <g> <g> <defs> <rect id="SVGID_00000061459670498901089290000013149408015556957082_" width="283.5" height="283.5"></rect> </defs> <clipPath id="SVGID_00000114067263363614713200000002379231526033541037_"> <use xlink:href="#SVGID_00000061459670498901089290000013149408015556957082_" style="overflow:visible;"></use> </clipPath> <path style="clip-path:url(#SVGID_00000114067263363614713200000002379231526033541037_);fill:#30404D;" d="M159.4,7.9V63 c0,4.3-3.5,7.9-7.9,7.9h-19.7c-4.3,0-7.9-3.5-7.9-7.9V7.9c0-4.3,3.5-7.9,7.9-7.9h19.7C155.9,0,159.4,3.5,159.4,7.9"></path> </g> </g> <g> <g> <defs> <rect id="SVGID_00000124883534843456757070000001877494503522870670_" width="283.5" height="283.5"></rect> </defs> <clipPath id="SVGID_00000041982799857236095360000004073400807942598325_"> <use xlink:href="#SVGID_00000124883534843456757070000001877494503522870670_" style="overflow:visible;"></use> </clipPath> <path style="clip-path:url(#SVGID_00000041982799857236095360000004073400807942598325_);fill:#30404D;" d="M25.7,158.5H7.9 c-4.3,0-7.9-3.5-7.9-7.9v-17.8c0-4.3,3.5-7.9,7.9-7.9h17.8c4.3,0,7.9,3.5,7.9,7.9v17.8C33.5,155,30,158.5,25.7,158.5"></path> </g> </g> <g> <g> <defs> <rect id="SVGID_00000127760371643472256720000009000347862970444718_" width="283.5" height="283.5"></rect> </defs> <clipPath id="SVGID_00000139992630386611769890000008993336756907970204_"> <use xlink:href="#SVGID_00000127760371643472256720000009000347862970444718_" style="overflow:visible;"></use> </clipPath> <path style="clip-path:url(#SVGID_00000139992630386611769890000008993336756907970204_);fill:#30404D;" d="M208.6,182.9 h-17.8c-4.3,0-7.9-3.5-7.9-7.9v-17.8c0-4.3,3.5-7.9,7.9-7.9h17.8c4.3,0,7.9,3.5,7.9,7.9V175 C216.4,179.4,212.9,182.9,208.6,182.9"></path> </g> </g> <g> <g> <defs> <rect id="SVGID_00000052077763518215466110000010691309610584046988_" width="283.5" height="283.5"></rect> </defs> <clipPath id="SVGID_00000083790398234590864750000000988026179723462052_"> <use xlink:href="#SVGID_00000052077763518215466110000010691309610584046988_" style="overflow:visible;"></use> </clipPath> <path style="clip-path:url(#SVGID_00000083790398234590864750000000988026179723462052_);fill:#30404D;" d="M141.5,283.5 h-17.8c-4.3,0-7.9-3.5-7.9-7.9v-17.8c0-4.3,3.5-7.9,7.9-7.9h17.8c4.3,0,7.9,3.5,7.9,7.9v17.8 C149.4,279.9,145.9,283.5,141.5,283.5"></path> </g> </g> <g> <g> <defs> <rect id="SVGID_00000004509624884861605890000001741082148958406276_" width="283.5" height="283.5"></rect> </defs> <clipPath id="SVGID_00000143581465412538546810000010350698816910351507_"> <use xlink:href="#SVGID_00000004509624884861605890000001741082148958406276_" style="overflow:visible;"></use> </clipPath> <path style="clip-path:url(#SVGID_00000143581465412538546810000010350698816910351507_);fill:#30404D;" d="M87.1,158.5H69.3 c-4.3,0-7.9-3.5-7.9-7.9v-17.8c0-4.3,3.5-7.9,7.9-7.9h17.8c4.3,0,7.9,3.5,7.9,7.9v17.8C95,155,91.5,158.5,87.1,158.5"></path> </g> </g> <g> <g> <defs> <rect id="SVGID_00000022562023631095639500000010415867724570816657_" width="283.5" height="283.5"></rect> </defs> <clipPath id="SVGID_00000029728595577624559400000005739443944304047757_"> <use xlink:href="#SVGID_00000022562023631095639500000010415867724570816657_" style="overflow:visible;"></use> </clipPath> <path style="clip-path:url(#SVGID_00000029728595577624559400000005739443944304047757_);fill:#30404D;" d="M283.5,123.7V175 c0,4.3-3.5,7.9-7.9,7.9h-17.8c-4.3,0-7.9-3.5-7.9-7.9v-51.3c0-4.3,3.5-7.9,7.9-7.9h17.8C279.9,115.9,283.5,119.4,283.5,123.7 "></path> </g> </g> <g> <g> <defs> <rect id="SVGID_00000000931286523821607930000005455733318207686803_" width="283.5" height="283.5"></rect> </defs> <clipPath id="SVGID_00000171714337729289121080000014183584275972612285_"> <use xlink:href="#SVGID_00000000931286523821607930000005455733318207686803_" style="overflow:visible;"></use> </clipPath> <path style="clip-path:url(#SVGID_00000171714337729289121080000014183584275972612285_);fill:#30404D;" d="M141.5,216.4 h-17.8c-4.3,0-7.9-3.5-7.9-7.9v-17.8c0-4.3,3.5-7.9,7.9-7.9h17.8c4.3,0,7.9,3.5,7.9,7.9v17.8 C149.4,212.9,145.9,216.4,141.5,216.4"></path> </g> </g> <g> <g> <defs> <rect id="SVGID_00000035519716689325335060000017540011892172545708_" width="283.5" height="283.5"></rect> </defs> <clipPath id="SVGID_00000142158416731272328690000008746126806793479329_"> <use xlink:href="#SVGID_00000035519716689325335060000017540011892172545708_" style="overflow:visible;"></use> </clipPath> <path style="clip-path:url(#SVGID_00000142158416731272328690000008746126806793479329_);fill:#30404D;" d="M177.2,15.6v75.1 c0,8.6,7,15.6,15.6,15.6h75.1c8.6,0,15.6-7,15.6-15.6V15.6c0-8.6-7-15.6-15.6-15.6h-75.1C184.1,0,177.2,7,177.2,15.6 M240.2,70.9h-19.7c-4.3,0-7.9-3.5-7.9-7.9V43.3c0-4.3,3.5-7.9,7.9-7.9h19.7c4.3,0,7.9,3.5,7.9,7.9V63 C248,67.3,244.5,70.9,240.2,70.9"></path> </g> </g> <g> <g> <defs> <rect id="SVGID_00000040562506113860233350000009180421664476639887_" width="283.5" height="283.5"></rect> </defs> <clipPath id="SVGID_00000093887514390230773830000015851165786049673129_"> <use xlink:href="#SVGID_00000040562506113860233350000009180421664476639887_" style="overflow:visible;"></use> </clipPath> <path style="clip-path:url(#SVGID_00000093887514390230773830000015851165786049673129_);fill:#30404D;" d="M0,15.6v75.1 c0,8.6,7,15.6,15.6,15.6h75.1c8.6,0,15.6-7,15.6-15.6V15.6C106.3,7,99.3,0,90.7,0H15.6C7,0,0,7,0,15.6 M63,70.9H43.3 c-4.3,0-7.9-3.5-7.9-7.9V43.3c0-4.3,3.5-7.9,7.9-7.9H63c4.3,0,7.9,3.5,7.9,7.9V63C70.9,67.3,67.3,70.9,63,70.9"></path> </g> </g> <g> <g> <defs> <rect id="SVGID_00000021814443001521862420000018426551984471439803_" width="283.5" height="283.5"></rect> </defs> <clipPath id="SVGID_00000020371473159153228620000010720487485694288319_"> <use xlink:href="#SVGID_00000021814443001521862420000018426551984471439803_" style="overflow:visible;"></use> </clipPath> <path style="clip-path:url(#SVGID_00000020371473159153228620000010720487485694288319_);fill:#30404D;" d="M0,192.8v75.1 c0,8.6,7,15.6,15.6,15.6h75.1c8.6,0,15.6-7,15.6-15.6v-75.1c0-8.6-7-15.6-15.6-15.6H15.6C7,177.2,0,184.1,0,192.8 M63,248 H43.3c-4.3,0-7.9-3.5-7.9-7.9v-19.7c0-4.3,3.5-7.9,7.9-7.9H63c4.3,0,7.9,3.5,7.9,7.9v19.7C70.9,244.5,67.3,248,63,248"></path> </g> </g> </g> </g> </g> </g> </g> </svg> 