<?xml version="1.0" encoding="utf-8"?>
<!-- Generator: Adobe Illustrator 27.2.0, SVG Export Plug-In . SVG Version: 6.00 Build 0)  -->
<svg version="1.1" id="Слой_1" xmlns="http://www.w3.org/2000/svg" xmlns:xlink="http://www.w3.org/1999/xlink" x="0px" y="0px"
	 viewBox="0 0 15 15" style="enable-background:new 0 0 15 15;" xml:space="preserve">
<style type="text/css">
	.st0{fill-rule:evenodd;clip-rule:evenodd;fill:#374957;}
</style>
<path class="st0" d="M5.9,14.9c0.1,0,0.3,0,0.4,0c0.4,0,0.9-0.1,1.2-0.4C8,14.2,8.2,13.6,8.2,13v-0.8c0-0.6,0.5-1,1-1h2.1
	c1,0,1.9-0.4,2.6-1C14.6,9.5,15,8.6,15,7.6c0,0,0-0.1,0-0.1c0-4.1-3.4-7.5-7.5-7.5l0,0c-2,0-3.9,0.8-5.3,2.2C0.8,3.7,0,5.6,0,7.6
	c0,1.7,0.6,3.4,1.7,4.7C2.8,13.6,4.3,14.5,5.9,14.9z M7.5,1.5L7.5,1.5c3.3,0,6,2.7,6,6c0,0,0,0.1,0,0.1v0c0,1.2-1,2.1-2.2,2.1H9.3
	c-1.4,0-2.5,1.1-2.5,2.5V13c0,0.2-0.1,0.3-0.2,0.3c-0.1,0-0.2,0.1-0.4,0.1c-2.8-0.6-4.8-3.1-4.8-5.9C1.5,4.2,4.2,1.5,7.5,1.5z
	 M3.5,8.4C3,8.4,2.6,8,2.6,7.6c0-0.5,0.4-0.9,0.9-0.9c0.5,0,0.9,0.4,0.9,0.9C4.4,8,4,8.4,3.5,8.4z M6.6,3.6c0,0.5,0.4,0.9,0.9,0.9
	s0.9-0.4,0.9-0.9S8,2.7,7.5,2.7S6.6,3.1,6.6,3.6z M10.3,5.6c-0.5,0-0.9-0.4-0.9-0.9c0-0.5,0.4-0.9,0.9-0.9c0.5,0,0.9,0.4,0.9,0.9
	C11.2,5.2,10.8,5.6,10.3,5.6z M3.8,4.7c0,0.5,0.4,0.9,0.9,0.9c0.5,0,0.9-0.4,0.9-0.9c0-0.5-0.4-0.9-0.9-0.9C4.2,3.9,3.8,4.3,3.8,4.7
	z"/>
</svg>
