<?xml version="1.0" encoding="UTF-8"?> <svg xmlns="http://www.w3.org/2000/svg" id="_Слой_1" data-name="Слой 1" viewBox="0 0 283.46 283.46"><defs><style> .cls-1 { fill: #acb3b8; } .cls-2 { fill: #30404d; } </style></defs><g><path class="cls-1" d="m156.93,165.42h-30.39c-4.69,0-8.49-3.8-8.49-8.49v-30.39c0-4.69,3.8-8.49,8.49-8.49h30.39c4.69,0,8.49,3.8,8.49,8.49v30.39c0,4.69-3.8,8.49-8.49,8.49"></path><path class="cls-1" d="m211.69,240.54h-12.4c-3.03,0-5.48-2.45-5.48-5.48v-12.4c0-3.03,2.45-5.48,5.48-5.48h12.4c3.03,0,5.48,2.45,5.48,5.48v12.4c0,3.03-2.45,5.48-5.48,5.48"></path><path class="cls-1" d="m235.05,217.17h-12.4c-3.03,0-5.48-2.45-5.48-5.48v-12.4c0-3.03,2.45-5.48,5.48-5.48h12.4c3.03,0,5.48,2.45,5.48,5.48v12.4c0,3.03-2.45,5.48-5.48,5.48"></path><path class="cls-1" d="m211.69,193.8h-12.4c-3.03,0-5.48-2.45-5.48-5.48v-12.4c0-3.03,2.45-5.48,5.48-5.48h12.4c3.03,0,5.48,2.45,5.48,5.48v12.4c0,3.03-2.45,5.48-5.48,5.48"></path><path class="cls-1" d="m193.81,199.29v12.4c0,3.03-2.45,5.48-5.48,5.48h-35.77c-3.03,0-5.48-2.45-5.48-5.48v-12.4c0-3.03,2.45-5.48,5.48-5.48h35.77c3.03,0,5.48,2.45,5.48,5.48"></path><path class="cls-1" d="m154.08,48.41v38.43c0,3.03-2.45,5.48-5.48,5.48h-13.74c-3.03,0-5.48-2.45-5.48-5.48v-38.43c0-3.03,2.45-5.48,5.48-5.48h13.74c3.03,0,5.48,2.45,5.48,5.48"></path><path class="cls-1" d="m60.81,153.42h-12.4c-3.03,0-5.48-2.45-5.48-5.48v-12.4c0-3.03,2.45-5.48,5.48-5.48h12.4c3.03,0,5.48,2.45,5.48,5.48v12.4c0,3.03-2.45,5.48-5.48,5.48"></path><path class="cls-1" d="m188.32,170.44h-12.4c-3.03,0-5.48-2.45-5.48-5.48v-12.4c0-3.03,2.45-5.48,5.48-5.48h12.4c3.03,0,5.48,2.45,5.48,5.48v12.4c0,3.03-2.45,5.48-5.48,5.48"></path><path class="cls-1" d="m141.59,240.54h-12.4c-3.03,0-5.48-2.45-5.48-5.48v-12.4c0-3.03,2.45-5.48,5.48-5.48h12.4c3.03,0,5.48,2.45,5.48,5.48v12.4c0,3.03-2.45,5.48-5.48,5.48"></path><path class="cls-1" d="m103.67,153.42h-12.4c-3.03,0-5.48-2.45-5.48-5.48v-12.4c0-3.03,2.45-5.48,5.48-5.48h12.4c3.03,0,5.48,2.45,5.48,5.48v12.4c0,3.03-2.45,5.48-5.48,5.48"></path><path class="cls-1" d="m240.53,129.19v35.77c0,3.03-2.45,5.48-5.48,5.48h-12.4c-3.03,0-5.48-2.45-5.48-5.48v-35.77c0-3.03,2.45-5.48,5.48-5.48h12.4c3.03,0,5.48,2.45,5.48,5.48"></path><path class="cls-1" d="m141.59,193.8h-12.4c-3.03,0-5.48-2.45-5.48-5.48v-12.4c0-3.03,2.45-5.48,5.48-5.48h12.4c3.03,0,5.48,2.45,5.48,5.48v12.4c0,3.03-2.45,5.48-5.48,5.48"></path><path class="cls-1" d="m166.44,53.8v52.37c0,6,4.87,10.87,10.87,10.87h52.36c6,0,10.87-4.87,10.87-10.87v-52.37c0-6-4.87-10.87-10.87-10.87h-52.36c-6,0-10.87,4.87-10.87,10.87m43.92,38.54h-13.74c-3.03,0-5.48-2.45-5.48-5.48v-13.74c0-3.03,2.45-5.48,5.48-5.48h13.74c3.03,0,5.48,2.45,5.48,5.48v13.74c0,3.03-2.45,5.48-5.48,5.48"></path><path class="cls-1" d="m42.93,53.8v52.37c0,6,4.87,10.87,10.87,10.87h52.36c6,0,10.87-4.87,10.87-10.87v-52.37c0-6-4.87-10.87-10.87-10.87h-52.36c-6,0-10.87,4.87-10.87,10.87m43.92,38.54h-13.74c-3.03,0-5.48-2.45-5.48-5.48v-13.74c0-3.03,2.45-5.48,5.48-5.48h13.74c3.03,0,5.48,2.45,5.48,5.48v13.74c0,3.03-2.45,5.48-5.48,5.48"></path><path class="cls-1" d="m42.93,177.3v52.37c0,6,4.87,10.87,10.87,10.87h52.36c6,0,10.87-4.87,10.87-10.87v-52.37c0-6-4.87-10.87-10.87-10.87h-52.36c-6,0-10.87,4.87-10.87,10.87m43.92,38.54h-13.74c-3.03,0-5.48-2.45-5.48-5.48v-13.74c0-3.03,2.45-5.48,5.48-5.48h13.74c3.03,0,5.48,2.45,5.48,5.48v13.74c0,3.03-2.45,5.48-5.48,5.48"></path></g><path class="cls-2" d="m246.15,28.53c4.85,0,8.79,3.94,8.79,8.79v208.83c0,4.85-3.94,8.79-8.79,8.79H37.32c-4.85,0-8.79-3.94-8.79-8.79V37.32c0-4.85,3.94-8.79,8.79-8.79h208.83m0-9H37.32c-9.83,0-17.79,7.96-17.79,17.79v208.83c0,9.82,7.96,17.79,17.79,17.79h208.83c9.83,0,17.79-7.96,17.79-17.79V37.32c0-9.83-7.96-17.79-17.79-17.79h0Z"></path></svg> 