<?xml version="1.0" encoding="UTF-8"?> <svg xmlns="http://www.w3.org/2000/svg" id="_Слой_1" data-name="Слой 1" viewBox="0 0 283.46 283.46"><defs><style> .cls-1 { fill: #acb3b8; } .cls-2 { fill: #30404d; } </style></defs><path class="cls-2" d="m250.51,0H33.86c-7.09,0-13.16,6.07-13.16,13.16v256.13c0,8.1,6.07,14.17,13.16,14.17h215.64c7.09,0,13.16-6.07,13.16-13.16V13.16c1.01-7.09-5.06-13.16-12.15-13.16Zm3.04,222.72c0,6.07-5.06,10.12-10.12,10.12H40.95c-6.07,0-10.12-5.06-10.12-10.12V20.25c0-6.07,5.06-10.12,10.12-10.12h202.47c6.07,0,10.12,5.06,10.12,10.12v202.47Z"></path><g><path class="cls-1" d="m156.21,144.05h-28.95c-4.47,0-8.09-3.62-8.09-8.09v-28.95c0-4.47,3.62-8.09,8.09-8.09h28.95c4.47,0,8.09,3.62,8.09,8.09v28.95c0,4.47-3.62,8.09-8.09,8.09"></path><path class="cls-1" d="m208.38,215.62h-11.82c-2.88,0-5.22-2.34-5.22-5.22v-11.82c0-2.88,2.34-5.22,5.22-5.22h11.82c2.88,0,5.22,2.34,5.22,5.22v11.82c0,2.88-2.34,5.22-5.22,5.22"></path><path class="cls-1" d="m230.64,193.35h-11.82c-2.88,0-5.22-2.34-5.22-5.22v-11.82c0-2.88,2.34-5.22,5.22-5.22h11.82c2.88,0,5.22,2.34,5.22,5.22v11.82c0,2.88-2.34,5.22-5.22,5.22"></path><path class="cls-1" d="m208.38,171.09h-11.82c-2.88,0-5.22-2.34-5.22-5.22v-11.82c0-2.88,2.34-5.22,5.22-5.22h11.82c2.88,0,5.22,2.34,5.22,5.22v11.82c0,2.88-2.34,5.22-5.22,5.22"></path><path class="cls-1" d="m191.34,176.32v11.82c0,2.88-2.34,5.22-5.22,5.22h-34.08c-2.88,0-5.22-2.34-5.22-5.22v-11.82c0-2.88,2.34-5.22,5.22-5.22h34.08c2.88,0,5.22,2.34,5.22,5.22"></path><path class="cls-1" d="m153.5,32.58v36.62c0,2.88-2.34,5.22-5.22,5.22h-13.09c-2.88,0-5.22-2.34-5.22-5.22v-36.62c0-2.88,2.34-5.22,5.22-5.22h13.09c2.88,0,5.22,2.34,5.22,5.22"></path><path class="cls-1" d="m64.64,132.62h-11.82c-2.88,0-5.22-2.34-5.22-5.22v-11.82c0-2.88,2.34-5.22,5.22-5.22h11.82c2.88,0,5.22,2.34,5.22,5.22v11.82c0,2.88-2.34,5.22-5.22,5.22"></path><path class="cls-1" d="m186.12,148.83h-11.82c-2.88,0-5.22-2.34-5.22-5.22v-11.82c0-2.88,2.34-5.22,5.22-5.22h11.82c2.88,0,5.22,2.34,5.22,5.22v11.82c0,2.88-2.34,5.22-5.22,5.22"></path><path class="cls-1" d="m141.6,215.62h-11.82c-2.88,0-5.22-2.34-5.22-5.22v-11.82c0-2.88,2.34-5.22,5.22-5.22h11.82c2.88,0,5.22,2.34,5.22,5.22v11.82c0,2.88-2.34,5.22-5.22,5.22"></path><path class="cls-1" d="m105.47,132.62h-11.82c-2.88,0-5.22-2.34-5.22-5.22v-11.82c0-2.88,2.34-5.22,5.22-5.22h11.82c2.88,0,5.22,2.34,5.22,5.22v11.82c0,2.88-2.34,5.22-5.22,5.22"></path><path class="cls-1" d="m235.86,109.53v34.08c0,2.88-2.34,5.22-5.22,5.22h-11.81c-2.88,0-5.22-2.34-5.22-5.22v-34.08c0-2.88,2.34-5.22,5.22-5.22h11.81c2.88,0,5.22,2.34,5.22,5.22"></path><path class="cls-1" d="m141.6,171.09h-11.82c-2.88,0-5.22-2.34-5.22-5.22v-11.82c0-2.88,2.34-5.22,5.22-5.22h11.82c2.88,0,5.22,2.34,5.22,5.22v11.82c0,2.88-2.34,5.22-5.22,5.22"></path><path class="cls-1" d="m165.27,37.71v49.89c0,5.72,4.64,10.35,10.35,10.35h49.88c5.72,0,10.35-4.64,10.35-10.35v-49.89c0-5.72-4.64-10.35-10.35-10.35h-49.88c-5.72,0-10.35,4.64-10.35,10.35m41.84,36.71h-13.09c-2.88,0-5.22-2.34-5.22-5.22v-13.09c0-2.88,2.34-5.22,5.22-5.22h13.09c2.88,0,5.22,2.34,5.22,5.22v13.09c0,2.88-2.34,5.22-5.22,5.22"></path><path class="cls-1" d="m47.6,37.71v49.89c0,5.72,4.64,10.35,10.35,10.35h49.88c5.72,0,10.35-4.64,10.35-10.35v-49.89c0-5.72-4.64-10.35-10.35-10.35h-49.88c-5.72,0-10.35,4.64-10.35,10.35m41.84,36.71h-13.09c-2.88,0-5.22-2.34-5.22-5.22v-13.09c0-2.88,2.34-5.22,5.22-5.22h13.09c2.88,0,5.22,2.34,5.22,5.22v13.09c0,2.88-2.34,5.22-5.22,5.22"></path><path class="cls-1" d="m47.6,155.37v49.89c0,5.72,4.64,10.35,10.35,10.35h49.88c5.72,0,10.35-4.64,10.35-10.35v-49.89c0-5.72-4.64-10.35-10.35-10.35h-49.88c-5.72,0-10.35,4.64-10.35,10.35m41.84,36.71h-13.09c-2.88,0-5.22-2.34-5.22-5.22v-13.09c0-2.88,2.34-5.22,5.22-5.22h13.09c2.88,0,5.22,2.34,5.22,5.22v13.09c0,2.88-2.34,5.22-5.22,5.22"></path></g></svg> 