<?xml version="1.0" encoding="utf-8"?>
<!-- Generator: Adobe Illustrator 27.2.0, SVG Export Plug-In . SVG Version: 6.00 Build 0)  -->
<svg version="1.1" id="_Слой_1" xmlns="http://www.w3.org/2000/svg" xmlns:xlink="http://www.w3.org/1999/xlink" x="0px"
	 y="0px" viewBox="0 0 283.5 283.5" style="enable-background:new 0 0 283.5 283.5;" xml:space="preserve">
<style type="text/css">
	.st0{fill:#ACB3B8;}
	.st1{fill:#30404D;}
</style>
<g>
	<path class="st0" d="M156.2,139h-28.9c-4.5,0-8.1-3.6-8.1-8.1v-28.9c0-4.5,3.6-8.1,8.1-8.1h28.9c4.5,0,8.1,3.6,8.1,8.1v28.9
		C164.3,135.4,160.6,139,156.2,139"/>
	<path class="st0" d="M208.4,210.5h-11.8c-2.9,0-5.2-2.3-5.2-5.2v-11.8c0-2.9,2.3-5.2,5.2-5.2h11.8c2.9,0,5.2,2.3,5.2,5.2v11.8
		C213.6,208.2,211.2,210.6,208.4,210.5"/>
	<path class="st0" d="M230.6,188.3h-11.8c-2.9,0-5.2-2.3-5.2-5.2v-11.8c0-2.9,2.3-5.2,5.2-5.2h11.8c2.9,0,5.2,2.3,5.2,5.2v11.8
		C235.8,185.9,233.5,188.3,230.6,188.3"/>
	<path class="st0" d="M208.4,166h-11.8c-2.9,0-5.2-2.3-5.2-5.2V149c0-2.9,2.3-5.2,5.2-5.2h11.8c2.9,0,5.2,2.3,5.2,5.2v11.8
		C213.6,163.7,211.2,166,208.4,166"/>
	<path class="st0" d="M191.3,171.3v11.8c0,2.9-2.3,5.2-5.2,5.2H152c-2.9,0-5.2-2.3-5.2-5.2v-11.8c0-2.9,2.3-5.2,5.2-5.2h34.1
		C189,166,191.3,168.4,191.3,171.3"/>
	<path class="st0" d="M153.5,27.5v36.6c0,2.9-2.3,5.2-5.2,5.2h-13.1c-2.9,0-5.2-2.3-5.2-5.2V27.5c0-2.9,2.3-5.2,5.2-5.2h13.1
		C151.1,22.3,153.5,24.6,153.5,27.5"/>
	<path class="st0" d="M64.6,127.5H52.8c-2.9,0-5.2-2.3-5.2-5.2v-11.8c0-2.9,2.3-5.2,5.2-5.2h11.8c2.9,0,5.2,2.3,5.2,5.2v11.8
		C69.8,125.2,67.5,127.5,64.6,127.5"/>
	<path class="st0" d="M186.1,143.8h-11.8c-2.9,0-5.2-2.3-5.2-5.2v-11.8c0-2.9,2.3-5.2,5.2-5.2h11.8c2.9,0,5.2,2.3,5.2,5.2v11.8
		C191.3,141.4,189,143.8,186.1,143.8"/>
	<path class="st0" d="M141.6,210.5h-11.8c-2.9,0-5.2-2.3-5.2-5.2v-11.8c0-2.9,2.3-5.2,5.2-5.2h11.8c2.9,0,5.2,2.3,5.2,5.2v11.8
		C146.8,208.2,144.5,210.6,141.6,210.5"/>
	<path class="st0" d="M105.4,127.5H93.6c-2.9,0-5.2-2.3-5.2-5.2v-11.8c0-2.9,2.3-5.2,5.2-5.2h11.8c2.9,0,5.2,2.3,5.2,5.2v11.8
		C110.7,125.2,108.3,127.5,105.4,127.5"/>
	<path class="st0" d="M235.8,104.5v34.1c0,2.9-2.3,5.2-5.2,5.2h-11.8c-2.9,0-5.2-2.3-5.2-5.2v-34.1c0-2.9,2.3-5.2,5.2-5.2h11.8
		C233.5,99.2,235.8,101.6,235.8,104.5"/>
	<path class="st0" d="M141.6,166h-11.8c-2.9,0-5.2-2.3-5.2-5.2V149c0-2.9,2.3-5.2,5.2-5.2h11.8c2.9,0,5.2,2.3,5.2,5.2v11.8
		C146.8,163.7,144.5,166,141.6,166"/>
	<path class="st0" d="M165.2,32.6v49.9c0,5.7,4.6,10.3,10.4,10.3h49.9c5.7,0,10.4-4.6,10.4-10.3V32.6c0-5.7-4.6-10.4-10.4-10.4
		h-49.9C169.9,22.3,165.2,26.9,165.2,32.6 M207.1,69.4H194c-2.9,0-5.2-2.3-5.2-5.2V51c0-2.9,2.3-5.2,5.2-5.2h13.1
		c2.9,0,5.2,2.3,5.2,5.2v13.1C212.3,67,210,69.4,207.1,69.4"/>
	<path class="st0" d="M47.6,32.6v49.9c0,5.7,4.6,10.3,10.3,10.3h49.9c5.7,0,10.3-4.6,10.3-10.3V32.6c0-5.7-4.6-10.4-10.3-10.4H57.9
		C52.2,22.3,47.6,26.9,47.6,32.6 M89.4,69.4H76.3c-2.9,0-5.2-2.3-5.2-5.2V51c0-2.9,2.3-5.2,5.2-5.2h13.1c2.9,0,5.2,2.3,5.2,5.2v13.1
		C94.6,67,92.3,69.4,89.4,69.4"/>
	<path class="st0" d="M47.6,150.3v49.9c0,5.7,4.6,10.4,10.3,10.4h49.9c5.7,0,10.3-4.6,10.3-10.4v-49.9c0-5.7-4.6-10.4-10.3-10.4
		H57.9C52.2,140,47.6,144.6,47.6,150.3 M89.4,187H76.3c-2.9,0-5.2-2.3-5.2-5.2v-13.1c0-2.9,2.3-5.2,5.2-5.2h13.1
		c2.9,0,5.2,2.3,5.2,5.2v13.1C94.6,184.7,92.3,187,89.4,187"/>
</g>
<g>
	<path class="st0" d="M262.7,13.6v217.2h-8.3V13.6c0-2.9-2.4-5.3-5.3-5.3H34.4c-2.9,0-5.3,2.4-5.3,5.3v217.2h-8.3V13.6
		C20.8,6.1,26.8,0,34.4,0h214.7C256.6,0,262.7,6.1,262.7,13.6z"/>
</g>
<path class="st1" d="M20.8,230.9v38.4c0,3.8,1.3,7.1,3.5,9.6c0.1,0.1,0.2,0.2,0.2,0.3c2.4,2.7,5.8,4.3,9.4,4.3h215.6
	c7.1,0,13.2-6.1,13.2-13.2v-39.5H20.8z"/>
</svg>
