<?xml version="1.0" encoding="UTF-8"?> <svg xmlns="http://www.w3.org/2000/svg" id="_Слой_1" data-name="Слой 1" viewBox="0 0 283.46 283.46"><defs><style> .cls-1 { fill: #30404d; } </style></defs><path class="cls-1" d="m250.51,0H33.86c-7.09,0-13.16,6.07-13.16,13.16v256.13c0,8.1,6.07,14.17,13.16,14.17h215.64c7.09,0,13.16-6.07,13.16-13.16V13.16c1.01-7.09-5.06-13.16-12.15-13.16Zm3.04,222.72c0,6.07-5.06,10.12-10.12,10.12H40.95c-6.07,0-10.12-5.06-10.12-10.12V20.25c0-6.07,5.06-10.12,10.12-10.12h202.47c6.07,0,10.12,5.06,10.12,10.12v202.47Z"></path></svg> 