<?xml version="1.0" encoding="utf-8"?>
<!-- Generator: Adobe Illustrator 27.2.0, SVG Export Plug-In . SVG Version: 6.00 Build 0)  -->
<svg version="1.1" id="_Слой_1" xmlns="http://www.w3.org/2000/svg" xmlns:xlink="http://www.w3.org/1999/xlink" x="0px"
	 y="0px" viewBox="0 0 283.5 283.5" style="enable-background:new 0 0 283.5 283.5;" xml:space="preserve">
<style type="text/css">
	.st0{fill:#30404D;}
	.st1{fill:#FFFFFF;}
</style>
<g>
	<path class="st0" d="M19.6-0.1h244.3c10.9,0,19.7,8.8,19.7,19.7v244.3c0,10.9-8.8,19.7-19.7,19.7H19.6c-10.9,0-19.7-8.8-19.7-19.7
		V19.6C-0.1,8.7,8.7-0.1,19.6-0.1z"/>
</g>
<g>
	<g>
		<path class="st1" d="M167.7,123.9v35.6c0,4.5-3.7,8.2-8.2,8.2h-35.6c-4.5,0-8.2-3.7-8.2-8.2v-35.6c0-4.5,3.7-8.2,8.2-8.2h35.6
			C164,115.7,167.7,119.4,167.7,123.9z"/>
	</g>
	<g>
		<path class="st1" d="M228.3,236.4v14.5c0,2.6-2.1,4.7-4.7,4.7h-14.5c-2.6,0-4.7-2.1-4.7-4.7v-14.5c0-2.6,2.1-4.7,4.7-4.7h14.5
			C226.2,231.7,228.3,233.8,228.3,236.4z"/>
	</g>
	<g>
		<path class="st1" d="M255.7,209.1v14.4c-0.1,2.6-2.2,4.7-4.7,4.7h-14.5c-2.6,0-4.7-2.1-4.7-4.7v-14.5c0-2.6,2.1-4.7,4.7-4.7H251
			C253.6,204.4,255.7,206.5,255.7,209.1z"/>
	</g>
	<g>
		<path class="st1" d="M228.3,181.7v14.5c0,2.5-2.1,4.7-4.7,4.7h-14.5c-2.6,0-4.7-2.1-4.7-4.7v-14.5c0-2.6,2.1-4.7,4.7-4.7h14.5
			C226.2,177,228.3,179.1,228.3,181.7z"/>
	</g>
	<g>
		<path class="st1" d="M200.9,209.1v14.5c0,2.6-2.1,4.7-4.7,4.7h-41.9c-2.6,0-4.7-2.1-4.7-4.7v-14.5c0-2.6,2.1-4.7,4.7-4.7h41.9
			C198.8,204.4,200.9,206.5,200.9,209.1z"/>
	</g>
	<g>
		<path class="st1" d="M154.5,32.5v44.9c0,2.6-2.1,4.7-4.7,4.7h-16c-2.6,0-4.7-2.1-4.7-4.7V32.5c0-2.6,2.1-4.7,4.7-4.7h16
			C152.3,27.9,154.5,30,154.5,32.5z"/>
	</g>
	<g>
		<path class="st1" d="M51.7,134.4V149c0,2.6-2.1,4.7-4.7,4.7H32.5c-2.6,0-4.7-2.1-4.7-4.7v-14.5c0-2.5,2.1-4.7,4.7-4.7H47
			C49.6,129.8,51.7,131.9,51.7,134.4z"/>
	</g>
	<g>
		<path class="st1" d="M200.9,154.3V169c0,2.6-2.1,4.6-4.7,4.6h-14.5c-2.6,0-4.7-2.1-4.7-4.7v-14.5c0-2.6,2.1-4.7,4.7-4.7h14.5
			C198.8,149.7,200.9,151.8,200.9,154.3z"/>
	</g>
	<g>
		<path class="st1" d="M146.3,236.4v14.5c0,2.6-2.1,4.7-4.7,4.7h-14.5c-2.6,0-4.7-2.1-4.7-4.7v-14.5c0-2.6,2.1-4.7,4.7-4.7h14.5
			C144.2,231.7,146.3,233.8,146.3,236.4z"/>
	</g>
	<g>
		<path class="st1" d="M101.9,134.4V149c0,2.6-2.1,4.7-4.7,4.7H82.7c-2.6,0-4.7-2.1-4.7-4.7v-14.5c0-2.6,2.1-4.7,4.7-4.7h14.5
			C99.8,129.8,101.9,131.9,101.9,134.4z"/>
	</g>
	<g>
		<path class="st1" d="M255.5,127.1V169c0,2.6-2.1,4.7-4.7,4.7h-14.5c-2.6,0-4.7-2.1-4.7-4.7v-41.9c0-2.6,2.1-4.7,4.7-4.7h14.5
			C253.4,122.4,255.5,124.5,255.5,127.1z"/>
	</g>
	<g>
		<path class="st1" d="M146.3,181.7v14.5c0,2.5-2.1,4.7-4.7,4.7h-14.5c-2.6,0-4.7-2.1-4.7-4.7v-14.5c0-2.6,2.1-4.7,4.7-4.7h14.5
			C144.2,177,146.3,179.1,146.3,181.7z"/>
	</g>
	<g>
		<path class="st1" d="M244.7,27.9h-61.3c-6.1,0-11,4.9-11,11v61.3c0,6.1,4.9,11,11,11h61.3c6.1,0,11-4.9,11-11V38.9
			C255.7,32.8,250.7,27.9,244.7,27.9z M230.3,77.5c-0.2,4.6-3.7,8.2-8.2,8.2h-16c-4.5,0-8.2-3.7-8.2-8.2v-16c0-4.5,3.7-8.2,8.2-8.2
			h16c4.5,0,8.2,3.7,8.2,8.2V77.5z"/>
	</g>
	<g>
		<path class="st1" d="M100.2,27.9H38.9c-6.1,0-11,4.9-11,11v61.3c0,6.1,4.9,11,11,11h61.3c6.1,0,11-4.9,11-11V38.9
			C111.2,32.8,106.2,27.9,100.2,27.9z M85.7,77.5c0,4.6-3.5,8.2-8.1,8.2H61.4c-4.5,0-8.2-3.7-8.2-8.2v-16c0-4.5,3.7-8.2,8.2-8.2h16
			c4.5,0,8.2,3.7,8.2,8.2V77.5z"/>
	</g>
	<g>
		<path class="st1" d="M100.2,172.4H38.9c-6.1,0-11,4.9-11,11v61.3c0,6.1,4.9,11,11,11h61.3c6.1,0,11-4.9,11-11v-61.3
			C111.2,177.3,106.2,172.4,100.2,172.4z M85.7,222c0,4.6-3.5,8.2-8.1,8.2H61.4c-4.5,0-8.2-3.7-8.2-8.2v-16c0-4.5,3.7-8.2,8.2-8.2
			h16c4.5,0,8.2,3.7,8.2,8.2V222z"/>
	</g>
</g>
</svg>
