<?xml version="1.0" encoding="UTF-8"?> <svg xmlns="http://www.w3.org/2000/svg" id="_Слой_1" data-name="Слой 1" viewBox="0 0 283.46 283.46"><defs><style> .cls-1 { fill: #acb3b8; } .cls-2 { fill: #30404d; } </style></defs><g><path class="cls-1" d="m156.21,184.55h-28.95c-4.47,0-8.09-3.62-8.09-8.09v-28.95c0-4.47,3.62-8.09,8.09-8.09h28.95c4.47,0,8.09,3.62,8.09,8.09v28.95c0,4.47-3.62,8.09-8.09,8.09"></path><path class="cls-1" d="m208.38,256.11h-11.82c-2.88,0-5.22-2.34-5.22-5.22v-11.82c0-2.88,2.34-5.22,5.22-5.22h11.82c2.88,0,5.22,2.34,5.22,5.22v11.82c0,2.88-2.34,5.22-5.22,5.22"></path><path class="cls-1" d="m230.64,233.85h-11.82c-2.88,0-5.22-2.34-5.22-5.22v-11.82c0-2.88,2.34-5.22,5.22-5.22h11.82c2.88,0,5.22,2.34,5.22,5.22v11.82c0,2.88-2.34,5.22-5.22,5.22"></path><path class="cls-1" d="m208.38,211.59h-11.82c-2.88,0-5.22-2.34-5.22-5.22v-11.82c0-2.88,2.34-5.22,5.22-5.22h11.82c2.88,0,5.22,2.34,5.22,5.22v11.82c0,2.88-2.34,5.22-5.22,5.22"></path><path class="cls-1" d="m191.34,216.81v11.82c0,2.88-2.34,5.22-5.22,5.22h-34.08c-2.88,0-5.22-2.34-5.22-5.22v-11.82c0-2.88,2.34-5.22,5.22-5.22h34.08c2.88,0,5.22,2.34,5.22,5.22"></path><path class="cls-1" d="m153.5,73.07v36.62c0,2.88-2.34,5.22-5.22,5.22h-13.09c-2.88,0-5.22-2.34-5.22-5.22v-36.62c0-2.88,2.34-5.22,5.22-5.22h13.09c2.88,0,5.22,2.34,5.22,5.22"></path><path class="cls-1" d="m64.64,173.11h-11.82c-2.88,0-5.22-2.34-5.22-5.22v-11.82c0-2.88,2.34-5.22,5.22-5.22h11.82c2.88,0,5.22,2.34,5.22,5.22v11.82c0,2.88-2.34,5.22-5.22,5.22"></path><path class="cls-1" d="m186.12,189.33h-11.82c-2.88,0-5.22-2.34-5.22-5.22v-11.82c0-2.88,2.34-5.22,5.22-5.22h11.82c2.88,0,5.22,2.34,5.22,5.22v11.82c0,2.88-2.34,5.22-5.22,5.22"></path><path class="cls-1" d="m141.6,256.11h-11.82c-2.88,0-5.22-2.34-5.22-5.22v-11.82c0-2.88,2.34-5.22,5.22-5.22h11.82c2.88,0,5.22,2.34,5.22,5.22v11.82c0,2.88-2.34,5.22-5.22,5.22"></path><path class="cls-1" d="m105.47,173.11h-11.82c-2.88,0-5.22-2.34-5.22-5.22v-11.82c0-2.88,2.34-5.22,5.22-5.22h11.82c2.88,0,5.22,2.34,5.22,5.22v11.82c0,2.88-2.34,5.22-5.22,5.22"></path><path class="cls-1" d="m235.86,150.03v34.08c0,2.88-2.34,5.22-5.22,5.22h-11.81c-2.88,0-5.22-2.34-5.22-5.22v-34.08c0-2.88,2.34-5.22,5.22-5.22h11.81c2.88,0,5.22,2.34,5.22,5.22"></path><path class="cls-1" d="m141.6,211.59h-11.82c-2.88,0-5.22-2.34-5.22-5.22v-11.82c0-2.88,2.34-5.22,5.22-5.22h11.82c2.88,0,5.22,2.34,5.22,5.22v11.82c0,2.88-2.34,5.22-5.22,5.22"></path><path class="cls-1" d="m165.27,78.2v49.89c0,5.72,4.64,10.35,10.35,10.35h49.88c5.72,0,10.35-4.64,10.35-10.35v-49.89c0-5.72-4.64-10.35-10.35-10.35h-49.88c-5.72,0-10.35,4.64-10.35,10.35m41.84,36.71h-13.09c-2.88,0-5.22-2.34-5.22-5.22v-13.09c0-2.88,2.34-5.22,5.22-5.22h13.09c2.88,0,5.22,2.34,5.22,5.22v13.09c0,2.88-2.34,5.22-5.22,5.22"></path><path class="cls-1" d="m47.6,78.2v49.89c0,5.72,4.64,10.35,10.35,10.35h49.88c5.72,0,10.35-4.64,10.35-10.35v-49.89c0-5.72-4.64-10.35-10.35-10.35h-49.88c-5.72,0-10.35,4.64-10.35,10.35m41.84,36.71h-13.09c-2.88,0-5.22-2.34-5.22-5.22v-13.09c0-2.88,2.34-5.22,5.22-5.22h13.09c2.88,0,5.22,2.34,5.22,5.22v13.09c0,2.88-2.34,5.22-5.22,5.22"></path><path class="cls-1" d="m47.6,195.87v49.89c0,5.72,4.64,10.35,10.35,10.35h49.88c5.72,0,10.35-4.64,10.35-10.35v-49.89c0-5.72-4.64-10.35-10.35-10.35h-49.88c-5.72,0-10.35,4.64-10.35,10.35m41.84,36.71h-13.09c-2.88,0-5.22-2.34-5.22-5.22v-13.09c0-2.88,2.34-5.22,5.22-5.22h13.09c2.88,0,5.22,2.34,5.22,5.22v13.09c0,2.88-2.34,5.22-5.22,5.22"></path></g><path class="cls-2" d="m32.96,283.46h216.65c7.09,0,13.16-6.07,13.16-13.16V14.17c0-8.1-6.07-14.17-13.16-14.17H33.97c-7.09,0-13.16,6.07-13.16,13.16v257.14c-1.01,7.09,5.06,13.16,12.15,13.16Zm-3.04-222.72c0-6.07,5.06-10.12,10.12-10.12h202.47c6.07,0,10.12,5.06,10.12,10.12v202.47c0,6.07-5.06,10.12-10.12,10.12H40.04c-6.07,0-10.12-5.06-10.12-10.12V60.74Z"></path></svg> 