<?xml version="1.0" encoding="utf-8"?>
<!-- Generator: Adobe Illustrator 27.2.0, SVG Export Plug-In . SVG Version: 6.00 Build 0)  -->
<svg version="1.1" id="_Слой_1" xmlns="http://www.w3.org/2000/svg" xmlns:xlink="http://www.w3.org/1999/xlink" x="0px"
	 y="0px" viewBox="0 0 34 34" style="enable-background:new 0 0 34 34;" xml:space="preserve">
<style type="text/css">
	.st0{fill:#ACB3B8;}
</style>
<g>
	<g>
		<path class="st0" d="M18.7,17.2h-3.5c-0.5,0-1-0.4-1-1v-3.5c0-0.5,0.4-1,1-1h3.5c0.5,0,1,0.4,1,1v3.5
			C19.7,16.8,19.3,17.2,18.7,17.2"/>
		<path class="st0" d="M25,25.8h-1.4c-0.3,0-0.6-0.3-0.6-0.6v-1.4c0-0.3,0.3-0.6,0.6-0.6H25c0.3,0,0.6,0.3,0.6,0.6v1.4
			C25.6,25.5,25.3,25.8,25,25.8"/>
		<path class="st0" d="M27.7,23.1h-1.4c-0.3,0-0.6-0.3-0.6-0.6v-1.4c0-0.3,0.3-0.6,0.6-0.6h1.4c0.3,0,0.6,0.3,0.6,0.6v1.4
			C28.3,22.8,28,23.1,27.7,23.1"/>
		<path class="st0" d="M25,20.4h-1.4c-0.3,0-0.6-0.3-0.6-0.6v-1.4c0-0.3,0.3-0.6,0.6-0.6H25c0.3,0,0.6,0.3,0.6,0.6v1.4
			C25.6,20.2,25.3,20.4,25,20.4"/>
		<path class="st0" d="M22.9,21.1v1.4c0,0.3-0.3,0.6-0.6,0.6h-4.1c-0.3,0-0.6-0.3-0.6-0.6v-1.4c0-0.3,0.3-0.6,0.6-0.6h4.1
			C22.7,20.4,22.9,20.7,22.9,21.1"/>
		<path class="st0" d="M18.4,3.8v4.4c0,0.3-0.3,0.6-0.6,0.6h-1.6c-0.3,0-0.6-0.3-0.6-0.6V3.8c0-0.3,0.3-0.6,0.6-0.6h1.6
			C18.1,3.2,18.4,3.5,18.4,3.8"/>
		<path class="st0" d="M7.8,15.8H6.3c-0.3,0-0.6-0.3-0.6-0.6v-1.4c0-0.3,0.3-0.6,0.6-0.6h1.4c0.3,0,0.6,0.3,0.6,0.6v1.4
			C8.4,15.5,8.1,15.8,7.8,15.8"/>
		<path class="st0" d="M22.3,17.8h-1.4c-0.3,0-0.6-0.3-0.6-0.6v-1.4c0-0.3,0.3-0.6,0.6-0.6h1.4c0.3,0,0.6,0.3,0.6,0.6v1.4
			C22.9,17.5,22.7,17.8,22.3,17.8"/>
		<path class="st0" d="M17,25.8h-1.4c-0.3,0-0.6-0.3-0.6-0.6v-1.4c0-0.3,0.3-0.6,0.6-0.6H17c0.3,0,0.6,0.3,0.6,0.6v1.4
			C17.6,25.5,17.3,25.8,17,25.8"/>
		<path class="st0" d="M12.6,15.8h-1.4c-0.3,0-0.6-0.3-0.6-0.6v-1.4c0-0.3,0.3-0.6,0.6-0.6h1.4c0.3,0,0.6,0.3,0.6,0.6v1.4
			C13.3,15.5,13,15.8,12.6,15.8"/>
		<path class="st0" d="M28.3,13.1v4.1c0,0.3-0.3,0.6-0.6,0.6h-1.4c-0.3,0-0.6-0.3-0.6-0.6v-4.1c0-0.3,0.3-0.6,0.6-0.6h1.4
			C28,12.4,28.3,12.7,28.3,13.1"/>
		<path class="st0" d="M17,20.4h-1.4c-0.3,0-0.6-0.3-0.6-0.6v-1.4c0-0.3,0.3-0.6,0.6-0.6H17c0.3,0,0.6,0.3,0.6,0.6v1.4
			C17.6,20.2,17.3,20.4,17,20.4"/>
		<path class="st0" d="M19.8,4.4v6c0,0.7,0.6,1.2,1.2,1.2h6c0.7,0,1.2-0.6,1.2-1.2v-6c0-0.7-0.6-1.2-1.2-1.2h-6
			C20.4,3.2,19.8,3.8,19.8,4.4 M24.8,8.8h-1.6c-0.3,0-0.6-0.3-0.6-0.6V6.6c0-0.3,0.3-0.6,0.6-0.6h1.6c0.3,0,0.6,0.3,0.6,0.6v1.6
			C25.5,8.6,25.2,8.8,24.8,8.8"/>
		<path class="st0" d="M5.7,4.4v6c0,0.7,0.6,1.2,1.2,1.2h6c0.7,0,1.2-0.6,1.2-1.2v-6c0-0.7-0.6-1.2-1.2-1.2h-6
			C6.3,3.2,5.7,3.8,5.7,4.4 M10.7,8.8H9.2c-0.3,0-0.6-0.3-0.6-0.6V6.6C8.5,6.3,8.8,6,9.2,6h1.6c0.3,0,0.6,0.3,0.6,0.6v1.6
			C11.4,8.6,11.1,8.8,10.7,8.8"/>
		<path class="st0" d="M5.7,18.6v6c0,0.7,0.6,1.2,1.2,1.2h6c0.7,0,1.2-0.6,1.2-1.2v-6c0-0.7-0.6-1.2-1.2-1.2h-6
			C6.3,17.3,5.7,17.9,5.7,18.6 M10.7,23H9.2c-0.3,0-0.6-0.3-0.6-0.6v-1.6c0-0.3,0.3-0.6,0.6-0.6h1.6c0.3,0,0.6,0.3,0.6,0.6v1.6
			C11.4,22.7,11.1,23,10.7,23"/>
	</g>
	<path class="st0" d="M27.3,30.8H6.7c-0.6,0-1-0.5-1-1v0c0-0.6,0.5-1,1-1h20.5c0.6,0,1,0.5,1,1v0C28.3,30.3,27.8,30.8,27.3,30.8z"/>
</g>
<g>
	<path class="st0" d="M29.9,1c0.3,0,0.6,0.3,0.6,0.6v30.7c0,0.3-0.3,0.6-0.6,0.6H4.1c-0.3,0-0.6-0.3-0.6-0.6V1.6
		C3.5,1.3,3.8,1,4.1,1H29.9 M29.9,0H4.1C3.2,0,2.5,0.7,2.5,1.6v30.7c0,0.9,0.7,1.6,1.6,1.6h25.8c0.9,0,1.6-0.7,1.6-1.6V1.6
		C31.5,0.7,30.8,0,29.9,0L29.9,0z"/>
</g>
</svg>
