<?xml version="1.0" encoding="UTF-8"?> <svg xmlns="http://www.w3.org/2000/svg" xmlns:xlink="http://www.w3.org/1999/xlink" version="1.1" id="Слой_1" x="0px" y="0px" viewBox="0 0 58.6 58.6" style="enable-background:new 0 0 58.6 58.6;" xml:space="preserve"> <style type="text/css"> .st0{fill:#21A038;} .st1{fill:url(#SVGID_1_);} .st2{fill:url(#SVGID_00000160169449365550543010000007126264334521750693_);} .st3{fill:url(#SVGID_00000107550465107171588750000001012019549183208116_);} .st4{fill:url(#SVGID_00000124132106146233063640000003242528683405342901_);} .st5{fill:url(#SVGID_00000033356597292177141090000011346751216749974458_);} .st6{fill:url(#SVGID_00000015348501365990687550000000835037527648359588_);} </style> <g> <path class="st0" d="M52.4,11.4c1.4,1.8,2.5,3.8,3.5,5.8L29.3,36.9l-11.2-7v-8.4l11.1,7L52.4,11.4z"></path> <linearGradient id="SVGID_1_" gradientUnits="userSpaceOnUse" x1="-689.73" y1="788.1583" x2="-690.6689" y2="792.6509" gradientTransform="matrix(2.8737 0 0 -4.7565 1990.1552 3797.9797)"> <stop offset="0.1444" style="stop-color:#F2E913"></stop> <stop offset="0.3037" style="stop-color:#E7E518"></stop> <stop offset="0.5823" style="stop-color:#CADB26"></stop> <stop offset="0.891" style="stop-color:#A3CD39"></stop> </linearGradient> <path class="st1" d="M6.8,29.3c0-0.4,0-0.8,0.1-1.2l-6.8-0.3c0,0.5-0.1,1-0.1,1.4C0,37.3,3.3,44.6,8.6,50l4.8-4.8 C9.3,41.1,6.8,35.5,6.8,29.3L6.8,29.3z"></path> <linearGradient id="SVGID_00000173137813536932371170000002023049675198985140_" gradientUnits="userSpaceOnUse" x1="-834.5823" y1="668.323" x2="-830.5797" y2="669.2445" gradientTransform="matrix(4.7565 0 0 -2.8737 3980.2749 1928.6589)"> <stop offset="5.920000e-02" style="stop-color:#0FA8E0"></stop> <stop offset="0.5385" style="stop-color:#0099F9"></stop> <stop offset="0.9234" style="stop-color:#0291EB"></stop> </linearGradient> <path style="fill:url(#SVGID_00000173137813536932371170000002023049675198985140_);" d="M29.3,6.8c0.4,0,0.8,0,1.2,0.1l0.3-6.8 c-0.5,0-1-0.1-1.4-0.1c-8.1,0-15.4,3.3-20.7,8.6l4.8,4.8C17.4,9.3,23.1,6.8,29.3,6.8L29.3,6.8z"></path> <linearGradient id="SVGID_00000039825557651746833310000014712317373715654286_" gradientUnits="userSpaceOnUse" x1="-831.0603" y1="652.7922" x2="-826.5341" y2="653.4102" gradientTransform="matrix(4.7565 0 0 -2.8737 3980.2749 1928.6589)"> <stop offset="0.1226" style="stop-color:#A3CD39"></stop> <stop offset="0.2846" style="stop-color:#86C339"></stop> <stop offset="0.8693" style="stop-color:#21A038"></stop> </linearGradient> <path style="fill:url(#SVGID_00000039825557651746833310000014712317373715654286_);" d="M29.3,51.8c-0.4,0-0.8,0-1.2-0.1l-0.3,6.8 c0.5,0,1,0.1,1.4,0.1c8.1,0,15.4-3.3,20.7-8.6l-4.8-4.8C41.1,49.3,35.5,51.8,29.3,51.8L29.3,51.8z"></path> <linearGradient id="SVGID_00000127743097907244857940000010039431435931958441_" gradientUnits="userSpaceOnUse" x1="-834.9437" y1="663.7927" x2="-831.1419" y2="663.1088" gradientTransform="matrix(4.8418 0 0 -2.8231 4070.4375 1878.4214)"> <stop offset="5.660000e-02" style="stop-color:#0291EB"></stop> <stop offset="0.79" style="stop-color:#0C8ACB"></stop> </linearGradient> <path style="fill:url(#SVGID_00000127743097907244857940000010039431435931958441_);" d="M41.9,10.7l5.7-4.2 c-5-4-11.4-6.5-18.4-6.5v6.8C34,6.8,38.4,8.3,41.9,10.7L41.9,10.7z"></path> <path class="st0" d="M58.6,29.3c0-1.8-0.2-3.5-0.5-5.3l-6.3,4.7v0.6c0,6.6-2.9,12.6-7.4,16.7l4.6,5C54.8,45.7,58.6,37.9,58.6,29.3 L58.6,29.3z"></path> <linearGradient id="SVGID_00000043428140896851189280000002563547473892350862_" gradientUnits="userSpaceOnUse" x1="-825.8187" y1="667.0526" x2="-821.4351" y2="665.9805" gradientTransform="matrix(4.5708 0 0 -2.9905 3783.9902 2044.6228)"> <stop offset="0.1324" style="stop-color:#F2E913"></stop> <stop offset="0.2977" style="stop-color:#EBE716"></stop> <stop offset="0.5306" style="stop-color:#D9E01F"></stop> <stop offset="0.8023" style="stop-color:#BBD62D"></stop> <stop offset="0.9829" style="stop-color:#A3CD39"></stop> </linearGradient> <path style="fill:url(#SVGID_00000043428140896851189280000002563547473892350862_);" d="M29.3,51.8c-6.6,0-12.6-2.9-16.7-7.4 l-5,4.6c5.4,5.9,13.1,9.6,21.7,9.6L29.3,51.8z"></path> <linearGradient id="SVGID_00000142863183315076712740000009162301500107697549_" gradientUnits="userSpaceOnUse" x1="-704.9788" y1="783.9727" x2="-703.8275" y2="788.5502" gradientTransform="matrix(2.9905 0 0 -4.5708 2113.6128 3613.6094)"> <stop offset="6.980000e-02" style="stop-color:#A3CD39"></stop> <stop offset="0.2599" style="stop-color:#81C55F"></stop> <stop offset="0.9216" style="stop-color:#0FA8E0"></stop> </linearGradient> <path style="fill:url(#SVGID_00000142863183315076712740000009162301500107697549_);" d="M14.2,12.6l-4.6-5C3.7,13,0,20.7,0,29.3 h6.8C6.8,22.7,9.6,16.7,14.2,12.6L14.2,12.6z"></path> </g> </svg> 