<?xml version="1.0" encoding="UTF-8"?> <svg xmlns:svg="http://www.w3.org/2000/svg" xmlns:inkscape="http://www.inkscape.org/namespaces/inkscape" xmlns:rdf="http://www.w3.org/1999/02/22-rdf-syntax-ns#" xmlns:dc="http://purl.org/dc/elements/1.1/" xmlns:cc="http://creativecommons.org/ns#" xmlns:sodipodi="http://sodipodi.sourceforge.net/DTD/sodipodi-0.dtd" xmlns="http://www.w3.org/2000/svg" xmlns:xlink="http://www.w3.org/1999/xlink" version="1.1" id="svg102" x="0px" y="0px" viewBox="0 0 120 120" style="enable-background:new 0 0 120 120;" xml:space="preserve"> <style type="text/css"> .st0{fill:#5B57A2;} .st1{fill:#D90751;} .st2{fill:#FAB718;} .st3{fill:#ED6F26;} .st4{fill:#63B22F;} .st5{fill:#1487C9;} .st6{fill:#017F36;} .st7{fill:#984995;} </style> <g> <path id="path66" class="st0" d="M11.7,26.4l14.4,25.8v15.7L11.7,93.6L11.7,26.4z"></path> <path id="path68" class="st1" d="M67.1,42.8l13.5-8.3l27.7,0L67.1,59.7C67.1,59.7,67.1,42.8,67.1,42.8z"></path> <path id="path70" class="st2" d="M67,26.2l0.1,34.1l-14.5-8.9v-51L67,26.2L67,26.2z"></path> <path id="path72" class="st3" d="M108.3,34.5l-27.7,0L67,26.2L52.6,0.4L108.3,34.5L108.3,34.5z"></path> <path id="path74" class="st4" d="M67.1,93.8V77.2l-14.5-8.7l0,51.1L67.1,93.8z"></path> <path id="path76" class="st5" d="M80.6,85.6L26.1,52.2L11.7,26.4l96.5,59.2L80.6,85.6L80.6,85.6z"></path> <path id="path78" class="st6" d="M52.6,119.6l14.5-25.8l13.5-8.2l27.6,0L52.6,119.6z"></path> <path id="path80" class="st7" d="M11.7,93.6l41-25.1L38.9,60l-12.8,7.9L11.7,93.6z"></path> </g> </svg> 