<?xml version="1.0" encoding="UTF-8"?> <svg xmlns="http://www.w3.org/2000/svg" xmlns:xlink="http://www.w3.org/1999/xlink" version="1.1" id="Слой_1" x="0px" y="0px" viewBox="0 0 512 512" style="enable-background:new 0 0 512 512;" xml:space="preserve"> <style type="text/css"> .st0{fill-rule:evenodd;clip-rule:evenodd;} .st1{fill:#FFFFFF;} </style> <g> <rect y="0" class="st0" width="512" height="512"></rect> <path class="st1" d="M370.2,141.9c-30.5-30.5-71.1-47.3-114.2-47.3c-43.1,0-83.7,16.8-114.2,47.3s-47.3,71.1-47.3,114.2 s16.8,83.7,47.3,114.2c30.5,30.5,71.1,47.3,114.2,47.3c43.1,0,83.7-16.8,114.2-47.3c30.5-30.5,47.3-71.1,47.3-114.2 S400.7,172.4,370.2,141.9z M265.5,198.8c17.4-0.5,34.3-2.5,50.1-5.7c3.9,16.6,6.3,34.7,6.9,53.5h-56.9V198.8z M265.5,179.9v-64.8 c13.1,4.4,25.8,17.6,35.8,37.7c3.4,6.8,6.4,14.2,9.1,22.1C296.2,177.7,281.1,179.4,265.5,179.9z M246.5,115.1v64.8 c-15.6-0.5-30.7-2.2-44.9-5c2.6-7.9,5.7-15.3,9.1-22.1C220.8,132.6,233.5,119.4,246.5,115.1z M246.5,198.8v47.8h-56.9 c0.6-18.8,2.9-36.9,6.9-53.5C212.3,196.4,229.2,198.3,246.5,198.8z M170.7,246.6h-56.9c1.7-26.6,10.7-51.8,26.1-73.2 c11.3,6.1,24.2,11.2,38.3,15.3C173.8,206.7,171.3,226.3,170.7,246.6z M170.7,265.5c0.6,20.3,3.1,39.9,7.4,58 c-14.1,4-27,9.1-38.3,15.3c-15.3-21.4-24.3-46.6-26.1-73.2H170.7z M189.6,265.5h56.9v47.8c-17.4,0.5-34.3,2.5-50.1,5.7 C192.5,302.4,190.2,284.3,189.6,265.5z M246.5,332.2V397c-13.1-4.4-25.8-17.6-35.8-37.7c-3.4-6.8-6.4-14.2-9.1-22.1 C215.8,334.4,230.9,332.7,246.5,332.2z M265.5,397v-64.8c15.6,0.5,30.7,2.2,44.9,5c-2.6,7.9-5.7,15.3-9.1,22.1 C291.2,379.5,278.5,392.7,265.5,397z M265.5,313.3v-47.8h56.9c-0.6,18.8-2.9,36.9-6.9,53.5C299.7,315.8,282.8,313.8,265.5,313.3z M341.3,265.5h56.9c-1.7,26.6-10.7,51.8-26.1,73.2c-11.3-6.1-24.2-11.2-38.3-15.3C338.2,305.4,340.7,285.8,341.3,265.5z M341.3,246.6c-0.6-20.3-3.1-39.9-7.4-58c14.1-4,27-9.1,38.3-15.3c15.3,21.4,24.3,46.6,26.1,73.2H341.3z M359.9,158.5 c-9.3,4.7-19.8,8.8-31.1,12c-3-9.3-6.6-18.1-10.6-26.1c-4.3-8.6-9-16.1-14.1-22.5c19.6,7,37.5,18.3,52.7,33.5 C357.9,156.3,358.9,157.4,359.9,158.5z M207.8,121.8c-5.1,6.4-9.8,14-14.1,22.5c-4,8.1-7.6,16.8-10.6,26.1 c-11.3-3.2-21.8-7.3-31.1-12c1-1.1,2.1-2.2,3.1-3.2C170.3,140.1,188.3,128.8,207.8,121.8z M152.1,353.7c9.3-4.7,19.8-8.8,31.1-12 c3,9.3,6.6,18.1,10.6,26.1c4.3,8.6,9,16.1,14.1,22.5c-19.6-7-37.5-18.3-52.7-33.5C154.1,355.8,153.1,354.7,152.1,353.7z M304.2,390.3c5.1-6.4,9.8-14,14.1-22.5c4-8.1,7.6-16.8,10.6-26.1c11.3,3.2,21.8,7.3,31.1,12c-1,1.1-2.1,2.2-3.1,3.2 C341.7,372,323.7,383.3,304.2,390.3z"></path> </g> </svg> 