<?xml version="1.0" encoding="UTF-8"?> <svg xmlns="http://www.w3.org/2000/svg" xmlns:xlink="http://www.w3.org/1999/xlink" version="1.1" id="Layer_1" x="0px" y="0px" viewBox="0 0 196.3 196.3" style="enable-background:new 0 0 196.3 196.3;" xml:space="preserve"> <style type="text/css"> .st0{fill:#333333;} .st1{fill:#FFDD2D;} .st2{fill-rule:evenodd;clip-rule:evenodd;fill:#333333;} </style> <g> <rect x="0" y="0" class="st0" width="196.3" height="196.3"></rect> <g> <g> <path class="st1" d="M43.1,51.7h110.1V107c0,14.2-7.6,27.3-19.9,34.4l-35.2,20.3L63,141.4c-12.3-7.1-19.9-20.2-19.9-34.4V51.7z"></path> <path class="st2" d="M73.3,80.8V98c2.4-2.7,6.6-4.5,11.5-4.5h5.3v20c0,5.3-1.4,10-3.6,12.5h23.1c-2.1-2.6-3.6-7.2-3.6-12.5v-20 h5.3c4.9,0,9.2,1.8,11.5,4.5V80.8H73.3z"></path> </g> </g> </g> </svg> 