<?xml version="1.0" encoding="UTF-8"?> <svg xmlns="http://www.w3.org/2000/svg" xmlns:xlink="http://www.w3.org/1999/xlink" version="1.1" id="Слой_1" x="0px" y="0px" viewBox="0 0 512 512" style="enable-background:new 0 0 512 512;" xml:space="preserve"> <style type="text/css"> .st0{fill:url(#SVGID_1_);} .st1{fill:#FFFFFF;} </style> <g> <linearGradient id="SVGID_1_" gradientUnits="userSpaceOnUse" x1="256" y1="1.56" x2="256" y2="514" gradientTransform="matrix(1 0 0 -1 0 514)"> <stop offset="0" style="stop-color:#00D02D"></stop> <stop offset="0.25" style="stop-color:#10D93A"></stop> <stop offset="0.75" style="stop-color:#3AF15D"></stop> <stop offset="1" style="stop-color:#51FE71"></stop> </linearGradient> <rect x="-0.2" class="st0" width="512.4" height="512.4"></rect> <g> <path class="st1" d="M256.1,78.5c-97,0-175.6,78.6-175.5,175.6c0,30.9,8.2,61.2,23.6,88l-23.9,91.4l92.9-24.6 c85.5,45.8,191.9,13.6,237.6-71.9S424.4,145.1,339,99.3C313.5,85.7,285,78.5,256.1,78.5z M359.4,357.4 C310.8,405.9,235,414.1,177.2,377l-53.9,14.3l13.8-52.7c-46.7-65.8-31.2-156.9,34.6-203.6s156.9-31.2,203.6,34.6 C416.4,227.7,409.7,307,359.4,357.4z"></path> <path class="st1" d="M344.1,300.1c0,2.9-0.2,5.8-0.7,8.6c-0.5,2.9-1.2,5.7-2.1,8.5c-2.2,6.1-14.1,13.7-14.1,13.7 c-8.4,5.6-18.5,8.2-28.6,7.4c-2.4-0.2-4.7-0.6-7.1-1.1c-3.9-0.9-5.9-1.4-5.9-1.4c-1.9-0.6-6.9-2.1-6.9-2.1c-5-1.5-6.1-1.8-6.1-1.8 c-7.5-2.3-14.8-5.2-21.8-8.9c-16-8.7-33.5-24.3-33.5-24.3c-10.3-9.2-19.7-19.5-27.9-30.6c-4.4-6.5-8.1-13.4-11.2-20.7 c-0.4-1.1-2.5-5.8-2.5-5.8c-2.1-4.8-2.9-6.6-2.9-6.6c-0.8-1.8-2.1-5.7-2.1-5.7c-0.8-2.3-1.4-4.6-1.9-6.9c-0.4-2.1-0.7-4.2-0.8-6.4 c-0.6-11.2,4.9-22.9,4.9-22.9c6.1-12.6,12-15.5,12-15.5c2.6-1.2,5.4-2.2,8.2-3c2.8-0.9,5.6-1.4,8.5-1.7c0.9-0.1,1.7,0,2.6,0.2 c2.2,0.6,6.9,8.9,6.9,8.9c1.5,2.2,4,6.4,4,6.4c2.5,4.1,4.7,7.4,4.7,7.4c2.1,3.3,4.1,6.3,4.1,6.3c0.4,0.5,2.3,2.9,2.3,2.9 c1,1.3,2,2.7,2.8,4.2c0.6,1.1,0.9,2.2,1.1,3.4c0.1,2.4-3.1,6.3-3.1,6.3c-2.2,2.5-4.6,4.9-7.1,7.1c-2.5,2.1-4.9,4.4-7.2,6.9 c-3.3,3.6-3.2,5.8-3.2,5.8c0.1,0.9,0.4,1.8,0.8,2.7c0.7,1.6,1.2,2.4,1.2,2.4c0.5,0.8,1.9,2.8,1.9,2.8c1.4,2,1.5,2.2,1.5,2.2 c6.4,10,14,19.2,22.7,27.3c12.5,11.2,29.7,19.5,29.7,19.5c0.3,0.1,2.4,1.3,2.4,1.3c2.1,1.2,3,1.5,3,1.5c0.9,0.4,2.5,0.9,2.5,0.9 c0.9,0.3,1.8,0.5,2.8,0.5c2.2-0.1,5.4-3.8,5.4-3.8c2.2-2.5,4.2-5.1,6-7.9c1.9-2.8,4-5.4,6.2-7.9c3.4-3.7,5.9-3.8,5.9-3.8 c1.2,0,2.4,0.2,3.5,0.7c1.5,0.7,3,1.5,4.4,2.4c2.7,1.6,3.2,2,3.2,2c3.2,1.7,6.7,3.4,6.7,3.4c3.6,1.8,7.9,3.8,7.9,3.8 c4.4,2.1,6.7,3.3,6.7,3.3c8.7,3.8,9.5,5.9,9.5,5.9C343.8,298.4,344,299.2,344.1,300.1L344.1,300.1z"></path> </g> </g> </svg> 