<?xml version="1.0" encoding="UTF-8"?> <svg xmlns="http://www.w3.org/2000/svg" xmlns:xlink="http://www.w3.org/1999/xlink" version="1.1" id="Слой_1" x="0px" y="0px" viewBox="0 0 1000 1000" style="enable-background:new 0 0 1000 1000;" xml:space="preserve"> <style type="text/css"> .st0{fill-rule:evenodd;clip-rule:evenodd;fill:url(#SVGID_1_);} .st1{fill-rule:evenodd;clip-rule:evenodd;fill:#FF4433;} </style> <linearGradient id="SVGID_1_" gradientUnits="userSpaceOnUse" x1="500.0003" y1="926.3945" x2="500.0003" y2="1926.3945" gradientTransform="matrix(1 0 0 1 0 -926.3942)"> <stop offset="0" style="stop-color:#FF6122"></stop> <stop offset="1" style="stop-color:#F22411"></stop> </linearGradient> <path class="st0" d="M100,400C100,179.1,279.1,0,500,0c220.9,0,400,179.1,400,400c0,110.4-44.7,210.4-117.1,282.8 c-18.9,18.9-44.5,40-72.1,62.8C632.5,810.2,537.4,888.7,530,970c-1.5,16.5-13.4,30-30,30c-16.6,0-28.5-13.5-30-30 c-7.4-81.3-102.5-159.7-180.8-224.4c-27.6-22.9-53.2-43.9-72.1-62.8C142,607.8,99.9,506.1,100,400z M640,400 c1.1,77.3-60.6,140.9-138,142c-77.3,1.1-140.9-60.6-142-138c0-1.4,0-2.7,0-4.1c1.1-77.3,64.7-139.1,142-138 C577.8,263.2,638.9,324.3,640,400z"></path> <path class="st1" d="M100,400C100,179.1,279.1,0,500,0c220.9,0,400,179.1,400,400c0,110.4-44.7,210.4-117.1,282.8 c-18.9,18.9-44.5,40-72.1,62.8C632.5,810.2,537.4,888.7,530,970c-1.5,16.5-13.4,30-30,30c-16.6,0-28.5-13.5-30-30 c-7.4-81.3-102.5-159.7-180.8-224.4c-27.6-22.9-53.2-43.9-72.1-62.8C142,607.8,99.9,506.1,100,400z M640,400 c1.1,77.3-60.6,140.9-138,142c-77.3,1.1-140.9-60.6-142-138c0-1.4,0-2.7,0-4.1c1.1-77.3,64.7-139.1,142-138 C577.8,263.2,638.9,324.3,640,400z"></path> </svg> 