<?xml version="1.0" encoding="UTF-8"?> <svg xmlns="http://www.w3.org/2000/svg" xmlns:xlink="http://www.w3.org/1999/xlink" version="1.1" id="Слой_1" x="0px" y="0px" viewBox="0 0 33.5 33.5" style="enable-background:new 0 0 33.5 33.5;" xml:space="preserve"> <style type="text/css"> .st0{fill:#FFCB00;} </style> <g> <rect class="st0" width="33.5" height="33.5"></rect> <path d="M26.7,8.7h-7.3c-0.1,0-0.2,0-0.2,0c-0.1,0-0.1,0.1-0.2,0.1C18.8,9,18.7,9,18.5,9.2l-8,12.4c-0.1,0.1-0.1,0.3-0.1,0.4 c0,0.2,0.1,0.3,0.1,0.4l3.6,5.6c0,0,0,0.1,0,0.1c0,0,0.1,0,0.1,0h0.3l0.1-0.1l12.2-19C27.1,9,27,8.7,26.7,8.7z"></path> <path d="M11.7,16L16,9.3c0.1-0.3,0-0.4-0.3-0.4H7.1C6.8,8.9,6.7,9,6.8,9.3l4.3,6.7c0,0,0,0.1,0,0.1c0,0,0.1,0,0.1,0h0.1 C11.5,16.1,11.6,16.1,11.7,16z"></path> </g> </svg> 